<svg xmlns="http://www.w3.org/2000/svg" xmlns:xlink="http://www.w3.org/1999/xlink" viewBox="1012272.05 1250867.99 4791 2902">
    <view id="defaultView" viewBox="1012272.05 1250867.99 4791 2902"/>
    <defs>
        <style>
            
        </style>
    </defs>
    <g id="viewer">
        <g id="mirror" stroke-width="2">
            <g id="background" fill="none">
                <path d="m1015397.92 1252499.29-37.22 18.63m-1239.94-52.91.57-20.64m1296.95 167.25 32.91-7.21m-.01 0 32.45 14" id="layer-RM-dol-TXT" class="rm-dol-txt"/>
                <path d="M1014841 1252504.4v-55.08m-626 55.08v-96m1092 40v43.5m-180.5 44.5v-52m338.5 44v-212m-1826 154v42m-16-42v58m1846-104v72m-1730-44v60m-4-64v64m344 0v-114.34m-4 114.34v-104m434 96v-102m-148.18 39.84v62.16m4-62.16v62.16m448.18 1022.75h-92m98.5-4h-107.5m100.99 77.5h-91.99m98.5 4h-107.5m1121 149.75v-150m6 68v-66m-378 58v12m-68-72v150m4-90v60m68-48v-58m-260-14v150m-325.5 0v-149.75m4 18.12v131.62m701.5.01v-150m4 150v-150m120 150v-136m4 136v-150m304 166h76m-16-71h16m0 71v-71m-16 55v-55m-60 55h60m-60 16v-16m-107 0v-150m-22 166h74.5m-74.5-16h7m67.5 16v-16m-67.5 0v-134m-7 150v-16m-106 16h-74.5m74.5-16h-69m126 0v-62m7 78v-16m-22 16v-16m0 0h9m-9 16h22m-64 0v-16m65-76h-10m10 8h-10m0 0v-8m14-6h-12m12 20h-12m8-6v-8m4 14v-20m-143.5 98v-16m-310.5-30h64m-64 4h64m117.5 42h74.5m-74.5-16h6.5m68 16v-16m-74.5 16v-16m-113.5 0v-42m-4 16v26m63 0h-59m59 16h-74.5m74.5 0v-16m-74.5 16v-16m15.5-42h-4m0 0v12m4-48h-4m-197.5 94h74m-74-16h74m59.5-26v26m-17.5 16h28m-28-16h13.5m14.5 16v-16m-70 16v-16m42 16v-16m-116 16v-16m-258.5 0h14m-14 16h74.5m125.5-16h-71m75 16h-75m75 0v-166m-75 166v-16m-54.5 16v-16m-60.5 0v-150m6 150v-136m-62 152h-27m27-16h-27m69 16v-16m-42 16v-16m-27 16v-16m27-80v-70m-2 82v-8m10 8h-10m10-8h-10m2-4h12m0 16v-16m0 16h-18m14-4v-8m-14 12v-22m-63 102h-74.5m74.5-16h-10.5m10.5 16v-16m-74.5 16v-16m829.66-150h41.84m-46-968h16m0 52h-16m16 72h-16m16 52h-16m16 72h-16m16 52h-16m16 72h-16m16 52h-16m16 72h-16m16 52h-16m16 72h-31.98m31.98 52h-16m60-740h-136m148 804h-70m-78-816h136m-140-4h140m-120 974h156m-110-6h58m-28-388v-72m364 296h68m0 223.5h-17.5m17.5-33h-17.5m1.5-119.5h16m-16 47h16m-16 178h16m0-225v-71m0 190.5v-72.5m0 178v-72.5m-171-167.5v-40m-133 150v-150m-6 148v-148m294 55v-55m-240 150h50m23 0v-36m54 36v4m-36-4v4m36 78h33m-25-78h103.5m-103.5 74h103.5m0-20.5v20.5m1.5 30h-80m80-4h-76m0-22h70m6 48v-22m-76-26v22m-4-22v26m78.5-83.5v-20.5m-103.5 74v-34m-4 34v-34m-40 34h-51m33 4h18m0 0v-4m36 0h4m-4 4v-4m-87 6h8m10 14h-10m0-14v14m-8-14v-6m51-74h-91m135 40h-4m-4-40h4m4 4v-4m-4 4v-4m4 4h-4m-4-8h107m6-14v-34m-171 34v-136m16 110v-66m4 70v-114m-16 110v-66m0 70h16m-16-4h12m-12 40h18m-6-110h-12m0 4h12m-12-4v-40m-133 154v-6m-36 6v-6m54 6v-4m42 4v-4m-58 78h70m-70 4h54m6 2h10m0 0v-6m-70 0v4m-2-78h18m-52 74h-93.84m59.84 18h-18m52-18v4m-30 0h30m46-82h6m-18-2h6m-74-14h-20m20 14v-14m0 14h32m-52 0v-14m336-134h52m-52 0v-16m-126.75 16h7.75m-7.75-16h72.25m0 16v-16m-72.25 16v-16m-237.25-100v-72m110.5 172h72.25m-72.25 16h11.5m60.75 0v-16m-72.25 16v-16m-110.5 0h56m0 16v-16m-56 0v-48m0-300v-72m0-52v-72m0-176v-52m0 176v-72m44-120v-12m16 28v-56m-60 56h60m0-56h-16m-60 604v-72m-468 72v-72m16 72v-72m16 544h4m-20-366h36m-84 362h68m12-366h4m236 292v-154m-190 24v-24m20 150v-150m346 90v-90m-170 0v134m154 14v-148m22 96v-96m-16 90v-90m-262 150v-150m4 154v-154m24 258h64m-64 4h64m-64 26h64m-64 4h64m88-138v-6m36 6v-6m-52-2v8m-32-8v8m48 0h-84m148.16 78h-24.16m24.16-4h-60.36m96.36 4v-4m-36 0v4m-60.36-4v4m-36-4v4m0 0h-17.8m17.8-4h-69.8m14 34v26m0-56v26m-14-30v4m14 0h-14m92-84h10m36 0h40m6 0v-52m10-6h-10m16 6h-16m-130 38h-30m30 12h32m-32-6v-6m0 6h38m0 0v8m-276 6v-6m55 6v-4m28 4v-4m1 82h46m-46-4h64m-14 34v26m0-56h14m-14 0v26m14-30v4m-38-78h-27m-28 0h-55m12-6v-118m94 120h-23m-28 0h-23m-20-2h-92m74-124v6m18 0h-92m74-6h18m370-144v-8m0 112h-70m70 0v-48m-72 60h2m-2 0v4m2-4v-12m54.02-116h16m-16 16v-16m15.98 12h-11.98m0-8h11.98m-11.98 8v-8m-98.02 112h-54m56 16h-66m64-4h2m0 0v4m-2-4v-12m-70-16.08h16m-24 28.08v-12m-2 12v4m0-4h2m8-12h-8m-88-122v-66m-102 188h90m24 16v-16m2 12v4m-2-4h2m0 4h-10m0-16h8m-8-60h-4m-66-58v78m4-78v78m-4 36h4m0 0v4m-4-4v4m0-40h4m-40 56v-16m-2-118h38m-38-4h104m-104 0v4m-36-4v4m162-86v7.75m4-12v16m-4-4h-18m22 4h-22m-4-72h22m-22-4h26m-4 20h-21.98m25.98 4h-25.98m21.98 40.25h-18m-4-4.25h26m.02-60v24m-4-20v16m-22.02 44.25v-4.25m0-56v-4m.02 24v-4m-408.02 400.25v-136m216 150v-150m22 24v-24m-4 24v-24m-12 24v-24m-226 82v-98m-73.5 147.5v-131.5m77.5 140h112m-112 10h112m-116 4h172m36 0v-4m-36 4v-4m86 4v-6m-70 84h60m-60 0v-4m20-74h50m-138 88h-52m0-10h52m32-4h-92.07m76.07 4h16m0 0v-4m-92.07 4h2.07m-2.07 0v-4m8.07 4v10m68-92h36m54-2v-118m-18 120h12m40-126v6m-34-6h12m4 0h18m-144 126v-10m-116 14.75v-.75m-95.5-3.25v4m-42 0v-4m133.5 0v4m-36-4v4m-18.5 77.21h37m-18.5-77.21h-55.5m119.43 73.5h-119.43m119.43 3.75h-17.93m17.93 0v-3.75m-41.43 63.75v-60m-4 64v-64.03m21.5 60.03v-60m-17.5 60h17.5m-21.5 4h21.5m-17.5-64h17.5m-4-77.25h4m-140.01 73.5v-33.5m-4 33.5v-33.5m48.51 37.5v-4m18 4h-18m-42-4h-2.51m2.51 4v-4m-6.51-33.5h4m-4-36h4m0 0v-4m-4 4v-4m6.51 0h-2.5m100-4h-18.5m62.5-.75v-10m-8 10.75h4m-12-36.75v-32m0 32h12m-8-4h8m-12-28h12m-8 28v-24m8 24v-24m-8 0h8m-77.5 64.75h-18m95.5-166.75h124m-120 16h120m96-112v-80m16 80v-22m28-4v-14m4-4v18m-96 122h48m16 0v-36m-16 36v-36m16 36h14m0 16v-16m0 16h-8m-22-52h16m-64 52v-16m48-96h16m0-26h28m-140 138v-16m112-136h28m-28-4h32m-48-32h16m-16-52h16m-379.5 224h89m-89 16h66m23-16v16m-89-16v16m427.5-804h-84m36 4h48m-48 150h94m-94 4h98m78 54v9.75m4 50v-14m272 182.25v-72m-180 72.15v-72.15m16 72.15v-72.15m0 72.15h-16m4-36.15v32.15m8 0h-8m8-32.15v32.15m0-48.15v-16m0 0h-8m0 0v16m12-20h-16m180-52v-72m-272 223.75v-68m-4 4.25v79.75m4-4.25h18m-22 4.25h26m-4-12h-18m22-4h-22m22 16v-16m-4 11.75v-7.75m-18 0v7.75m18-91.5h-18m18 7.75h-18m22 4h-22m22-76v76m-4-72v16m-22-16h22m0 16h-21.98m-.02-20h26m-4 24h-18m-4-20v-4m.02 64.25v-44.25m21.98-68h-18m22-4h-22m-4 16h26m-4-4.25v-7.75m4 12v-16m250-203.75v-64m-176 52v12m-4-12v58m72-46v-64m108 150h-176m176 4h-158m158 34v-34m-158 54v-54m-4 38v-38m4 54h-22m18-16h-18m4-46h-4m4 0v4m-4-4v8m4-90h68m-68 4h68m4 24v-60m-4 36v24m0 0h4m-72-24v42m0 0h-4m76-82h32m-32-28h32m-32 32h36m-8-36v-12m-4 12v-16m12 20h68m-68 32v-32m-4 28v-28m-92 0h56m4 28v-28m-76 52h4m0-40v4m-4 0v-24m0 0h4m0 0v4m-4 20h4m0-92h24m-24 4h24m0-4v4m-24 0v28m-4 0h4m-96 96v23.75m-4 16v-39.75m22.02 79.75v16m4-20v24m-4-4h-22.02m26 4h-26m22 48h-18m18-7.75h-18m-4-4.25h26m0 16h-22m18-11.75v7.75m4-12v16m-26-11.75v-4.25m0-36v-4m22-68h-18m-4 12h26m0-16h-22m-4 56h22.02m-22.02-4h26m-4-40.25v-7.75m4 12v-16m-26 56v-4m-78 26.25v-34m-4 30v-30m4 0h-4m-10-120h80m-50-76.5h32.5m-32.5-4h62m-25.5 4v72.5m-4-72.5v72.5m33.5 56h-4m0-40h-12m12 4v-4m4 4v-24m-4 24h4m-4-24v4m0-4h4m-4-68.5v12.5m-25.5-12.5h25.5m4 12.5v-20.5m-4 0v4m0 16.5h4m-4-20.5h4m-66 8v72.5m-4 0v-120m-62 124v-4m36 4v-4m-100 440v-72m16 72v-72m-16 124h16m-16-52h16m-16-72h16m-16-52v-72m16 72v-72m-16 72h16m-16-72h16m-20.29-100v-18m20.29 66v-34m-16 34h16m-6.5-72v-52m0 52h6.5m0-52h-6.5m-9.5-52h-60m16-48h-6.5m-9.5 48v-34.86m-260-23.15v-6m0 .01h-114.93m98.93-16h-202m126 1266h-74.5m0-89.5h15.5m0 73.5v-73.5m59 73.5h-59m59 16v-16m-74.5 16v-89.5m-611.5-328.5h-185m169-16h-108m108-810h-68m68 350h-154m154 4h-144m144 222h-150m150-8h-82m-26 60h-42m34 8h-38m38 150h-38m38-4h-38m38-110h-38m38 4h-28m144-206h-82m82-4h-154m154-340h-144m144-4h-154m60 116h-60m60-4h-60m170 314v64m-16-64v4m-82 16v-12m-4 12v-58m713.5 409.5v-89.5m15.5 89.5v-73.5m6 150.75v-16.25m-21.5 119.5v-126m15.5 126h-15.5m26.5-25.5v-73.75m4 73.5v-73.5m-15 73.75v-73.75m11 73.75h-11m0 25.5v-6.5m11-92.75h-11m-15.5-81.25h15.5m0 54.5h-15.5m15.5 6.5v-6.5m-15.5-144h68.5m-53 16h53m0-16v16m-804-218v182m-8-134v106m56.5-153.5v133.5m11-133.5v133.5m48.5-100v76m16-76v76m-16 36v36m16-36v52m0-52h-16m16-36h-16m-116 48v24m67.5-48h-11m59.5-206h-82m98 106h-16m16-50h-16m-59.5 16.5h11m-67.5 7.5v36m520-678h-76m122-16v-146m2 146h-2m-434 24v244m-16-246v8m164 238v12m36-12v12m-36 0h-148m264 0h-80m-200 294h-82m82-114v28m16-28v60m0 50h-16m16-50h-16m16-60h-16m-82 72h-4m0 4h4m0-40v-4m-4 4v-4m4 4h-4m86-150v26m16-26v64m0 0h-16m16-64h-16m16-50h-16m164-28h-4m108-234v2m-136 54v54m84-58v130m-4-130v134m-76-130v178m24-182v182m-4-178v178m112 0h-68m68-48h-8m8-4h-8m0 0v4m-36-4v4m0 0h-12m12-4h-8m-84-68v120m0-120h-36m36-4h-36m0 0v4m172-122h-108m108 8h-164m112 52h-4m56-70v10m-108 60h-56m52 4h-20m-36 0v-12m4 0h-4m4 0v8m28 4h-32m48-82h-44m56 8v10m-12-18v-104m-44 130v8m0 0h-4m0 0v-50m0 0h4m0 16v-16m-68 32v244m4 0v-120m-40 112h-66m66-4h-62m62-8h-66m4 4h62m36 16h-20m32-124h-8m8 0v4m-114 116h-28m28-12h-28m28 0v-4m4 8v-4m-4 8v4m-28-12v4m4 0v4m-4 0v4m24-8v4m0 0h-20m20-4h-20m90-226h-68m68 4h-72m108-10h-20m24-28h-4m0 0v12m0 0h-20m-88 14v12m4-12v8m-86 548v-15m-80 9v28m-170-36v60m16-60v36m158-48v100m-4-52h-154m154 4h-154m154 112h-154m154 4h-154m169 112h-11m11 16h-185m246-206v98m4-32v32m-76-52v48m-4-16v16m76 40v56m4-56v28m-15 28v16m15-40v24m-65 0v16m65-72h-4m4-36h-4m-76 32v44m4-44v60m-4-12h-72m72-4h-76m76 4v12m-72-12v12m-4 0v-16m80-44h-4m4-36h-4m84-94v8m-4 8v36m4-52h-8m0-36v-43m8 35v8m0 0h-8m-76-2v48m0 56v8m0-28v8m4-8h-4m4-36h-4m-170 22v72m16-72v42m-16 80v52m16-52v36m0-36h-16m16-50h-16m16-72h-16m16-50h-16m174-408v80m76-36v20m-4-76v124m-246-96v62m16-62v20m154 4v24m0 92h-154m154-4h-154m158 46v102m72-80v-72m0 199h4m-4-71v-20m4 0v16m0-16h-4m4-42v6m0 0h-4m-76 52v28m0 36v8m4-8h-4m4-36h-4m0-86v54m0 0h-154m154 4h-154m234-112v42m6 0v-42m-6-12h-4m4 0v8m6 4h-6m0-84v36m0 0h-4m-76 4v36m4-36v46m-4 36v4m4-4h-4m0-42v6m4 0h-4m0-46h4m-4-40v4m0 0h4m-174 156v62m16-62v32m0 80h-16m16-50h-16m16-62h-16m0-108v58m16-58v24m0 34h-16m16-58h-16m16-50h-16m76-286h-96m36 4h144m-144 122h154m-154 4h144m10-44v40m4-40v86m76 24v52m0-96v8m-4-32v32m4 0h-4m4 36h-4m4-68h-4m4 0v8m-80 72v36m0 0h-154m154 4h-154m154-40h4m-4-56v20m0 0h4m-10-32v-10m6 0v10m-6-10h6m80-116v78m-4-100v100m4 0h-4m4-100h-4m4 0v8m-80 14v36m4-70v70m-4 36h4m-4-36h4m-94-50h90m0-20v20m0-20h4m-174 130v64m16-64v16m0 98h-16m16-50h-16m16-170v56m-16-44v44m16 50h-16m16-50h-16m0-44h-36m2082-380h-18.7m-25.3-834h-16m16 72h-16m16 52h-16m16 72h-16m16 52h-16m16 72h-16m16 52h-16m16 72h-16m16 52h-16m16 72h-16m16 52h-16m60 66h-152m96 224h56m-52.5 4h48.5m-48.5 112h48.5m-52 4h56m-236 80h236m-224-4h224m0-276h-12m8 184v12m4 76h16m-16 60h16m0 0v-60m-16 60v-52m0-50h16m0-20h24m0 0v-20m-24 40v-20m-16 20v-30m22-30-26 14m40 6h4m-4-4h4m-4 0v4m4-4v-16m0 0h-18m-7.89-64.25h-13.86m-.25-55.75h16m-1.89 55.75-13.86-7.46m39.75-8.29v-20m-4 20h4m-4 4v-4m0 4h4m0 16h-44m44 0v-16m-24-24h24m-24 0v-20m-20 60v-26m4.25 14.29v7.46m-.25-25.75v-30m16-42v-60m-16 60v-4m0 4h16m-32-24h16m-12 4h12m-16 12v-16m4 16v-12m28-40h-16m-44-108v-50m44 106h16m-60-56h60m0 56v-56m-16 56v-40m-44-366v-72m0 196v-72m0 196v-72m0-300v-72m0-52v-72m-294 1034h-234m146 4h-12m-38-134h-96m96 4h-96m156-222h-132m36-4h96m29 304h-121m121-6h-121m-64 144h118m24-330v108m-6 2v-132m208 282v-12m172.5-16v-34m3 34v-34m-3.5 38v-4m0 0h.5m-180.5 44v36m8-36v36m4 0v-84m-12 84h8m0-64h-8m0 0v12m180-102v-4m4 4v-4m0 44v-4m0 0h-4m4 4h-.5m-3.5 0v-4m.5 4h-.5m4-40h-4m0-38v-4m.5 4h-.5m.5 34h-.5m3.5 0h.5m-.5 0v-34m-3 34v-34m-180.5 96v8m12-12h-12m8 4h-8m0-8v4m8 12h-8m12 0h2m-2 0v-12m-12-4h-4m16 20h2m0 0v-4m0-108v4m-14-36v44m8-44v44m0 0h-8m12-8h2m-2 0v12m0 0h-12m12-16h2m-2 0v-51.62m-114 175.62v-27m-10 31h-42m54 32v67.5m4 0v-130.5m-4 130.5h4m-4-99.5v12m0 0h-8m8-12h-8m0 12v-12m-46 96h-8m8-20h-64m4 4h56m-56 12h56m0 0v-12m4 16v-20m-64 16v-6m0 6h-118m122 0v-12m60-64h-52m48-4h-44m12-8v-8m36 20v-16m-4 12v-12m-8-4v8m-24 0h24m-36 8v-12m-4 16v-16m104-136h-92m92 6h-44m50 99h-6m6-72v-101m-6 74v27m6 0h-6m0-57v24m-49 84v-6m-37-72h-16m16-6v6m42-6v6m-94-4v4m36-4v4m4-4h-4m278.62-78h8m-12-12h3.62m.38 4h8m74.69 0v12m-8 0v-12m0 0h8m4-4v16m-16-16h16m-16 16v-16m-58.69 0v16m-4-12v8m-9.37 8v-2m1.37-6v-8m-4 14h2.62m-2.62 0v-18m-65.5 16v32m4.26-3.63v-26.38m-9.38-1.99v32m12-3.63h-2.62m-1.38-32.62h-8m5.12 4.25h-5.12m9.38 2h2.62m-4-14v7.75m-8 0v-7.75m0 0h8m4-4v18m-16-18h16m-26 20v-4m10 4h-10m86-118h8m-8-62h32m-36-4h40m-36 32h32m0 0v-28m4 29v-33m68 33v-63m-96 66v30m4-30v34m-12-38v-28m0 62v-30m-4 34v-70m-168 76v20m0 0h-48m36 6h-32m42 42h-92m82-6h-32m42 6v68m16-28h-10m10-4h-10m10 4v-4m-26-78v36m-36-16h-48m48-4h-204m204-22v22m4-16v36m-52 0v-16m-4 0h-136m236-102v-132m20 148h-16m16-16h-16m16 0v16m-16 40h-4m16-44h-12m12-8v8m-12-8h12m-28 0h-16m0 8v-8m-4 12v-16m36 20h-4m4 0v-4m-4 0v4m-28-8h16m-68 4v-4m-172 192v30m-16 128v-12m32 150h-6.5m28.5-132v82m-26-200h-28m28 96h-50.1m118.1-30v-6m-68 24v12m4-12h-4m4-72v-24m-4 12v12m4 0h-4m-28-28v16m16-16h-16m-50 0v16m-30 0v-16m30 16h-30m30-16h-30m-173.5 230.92v-52m0 52h-6.5m6.5-52h-6.5m82-178.92v16m30 0v-16m0 16h-30m30-16h-30m-82 100h4m0 0v12m28-96h-28m28-16v16m-16-42h-16m16 26v-26m16 26h-16m-16 28h4m0-12v12m-4 0v-54m276-56h16m-16 52h16m0-102v50m-16-54v28m-12 0v12m-60-12v12m-28 0v-12m100 12h-12m-60 0h-28m100-12h-12m-60 0h-28m160-126h-108m48 46h16m60-34v-62m-16 50v-50m-44 66v20m44-86h16m-122 69h-15m15-12h-15m61-7v46m-46-27v-12m-15 12v-268.42m-127 375.42v12m28 0v-12m0 12h-28m28-12h-28m-60 0v12m-12 20h-16m28-20h-12m0-78h-42m54 66h-12m-16-50h-26m0-16v16m104-57h-16m16-12h-16m16 0v12m-16-12v12m466-273h-114m114-4h-176m83.8 138h-83.8m58-130h-58m62 4h-62m176-244h-176m52 8h-52m52 4h-52m52-8h-52m176-158h-176m176 4h-114m0 8h-62m58-4h-58m103 504h-19.2m19.2-4h-103m175.8-248v-27m100.2 27v-8m176 42v-22m-400-12v-34m4 34v-34m216 234h-54m234-42v-20m0 144v-72m-176-18v4m-4-4h4m101-162h-26m30 4h-34m105-34h-176m12 4h59m57 134h48m-48-16.5h48m-44 12.5v-7m0 0h44m-44 7h44m-48 .5v-13m48-109.5h-71m13-4h58m-71 0v-4m9 4v-4m0 4h-9m-4 22v-26m4 30v-22m13-4v-4m-43 26v-26m-4 30v-30m-171 244h-37m37 4h-37m37-40v36m42-48v-4m-42-18v18m4-18h-4m-73 74v-4m36 4v-4m-59.2 12v-8m4 12v-12m-4 8h-79.8m164-256h-164m180 78v-109m-4 43v66m0 36v8m4-8h-4m4 24h-4m4 0v-24m-4 12v12m4-60h-4m-.2-82h-119.8m6 138v-8m-4 4v-4m-6-130h-52m48 4v-4m228-128v-62m-4 146v-170m180 124v-34m-176 0h176m-176-4h176m-176 84v-80m-4 116h4m-4-36h4m0-212h77m-77-4h176m-99 12h99m0 34v-34m-95-4h95m-95 0v-4m-81 50v-8m-4 0h4m77-34v-8m-77-4v-8m-4 18v-18m0 18h4m0 0v-6m-4-12h4m-100 118v-40m4 40v-122m-4.2 170h-119.8m124 27v-39m-4.2 39v-27m4.2 75h-4.2m0-48h4.2m-4-31v-8m4-36h-4m4 36h-4m-124 44v-24m4 24v-32m0 68h-4m4-36h-4m0-28v-4m124-154v50m0-66v12m4-12h-4m-118 20v-4m4 8v-8m-62 290v-30m-16 30v-72m16 196v-20m-16 20v-72m0 196v-72m16 72v-18m-16 18h16m-16-72h16m-16-52h16m-16-72h16m20-82v-4m-36 34h16m0-124v-4m-16 4v-72m0 124h16m-16-52h16m0-124v-34m-16 34v-72m0 124h16m-16-52h16m-16-72h16m468-52h-16m16-64h-98m98 64v-64m-254 0h-118m68 16h-164m287-73h-143m143 6h-143m212-57v108m96 16h-164m164 48v-48m-82-16v-122m-94 220v-74m-4 74v-34m0 34h4m-24-40v6m20 0h-20m20-6h-20m20-42h-10m0-16v16m14 8h12m0 0v-8m82-138h-119m105 14h-105m0-14v14m36 57v-6m-205 5v52m14-52v52m84 94v-30m-4 30v-70m34 34v-42m4 42v-58m-34 58h30m-30 6h36m0-6v6m-36 30h-4m34-78h-30m-16 8h12m-12 0v-8m37-138h-119m119 14h-105m105-14v14m-57 57v-6m-62-65v30m14 0h-14m14 40h-14m14-56v16m-96 156v-48m-16 48v-64m0 64h16m-1243.97 1068h-44.03m44.03 4h-12.03m26 78h-54m62 4h-62m54-20h-44m160-882h-57m41 16h-90m-4 24h-60m64 4h-64m154 94h-154m10 4h144m-154 116h154m-144 4h144m-154 116h154m-154 4h154m-154 116h154m-154 4h7.51m54.49 400h-62m54-4h-54m54-16h-44m103-1004h-128m114 14h-114m66 57h-132m132-6h-132m239 789h-162m158-4h-154m170-382v78m-16-78v32m324 152h-76m76 16h-36.5m12.32 378.18 11.9-11.9m-9.9 15.56 12.73-12.73m239.2-251.11v18.38m-4-14.38v62m-12-62v62m-4-66v71.38m16.63 132.62v-62m-12 62v-62m-4 66v-68m20 68v-63m-16 59h12m4 4h-20m122.87-63h-102.88m122.38-5h-142.38m142.38 15.5h-19.5m19.5-15.5v15.5m-19.5 0v-10.5m-103.5-126.63v53m-20 0h20m-119.75 148.63v-68.5m11 28.5v-36m-4 40v-40m-11 76v-64.5m0 64.5h-86m102 4h-104.34m104.34-4v-36m0 36h-12m12-36h-5m9-4h-5m-130.46 71.11-2.83-2.83m28.29-66.28v38m4-38v38m-4 5.66 1.66-1.66m-4.49-1.17 2.83-2.83m0 5.66-2.83-2.83m6.83-40.83h-4m90-26.5h-33m53-15.5h-110m94 11.5h-23.5m30.5-7.5h-30.5m39.5 0v-4m0 4h-5m-48 0h-53m53 11.5v-11.5m13.5 10v-12m-66.5 4h-4m0-6v6m4-2v2m232-264h-76m76-16h-76m202 16h-76m76-16h-76m76 0v16m-152.25 122h-12m16-4h-20m92.25-134v16m-50-16v16m-126 0h-76m76-16h-76m126 0v16m-50-16v16m-76-16v16m-50-16v16m-176 66v28m12-28v104.5m-160-60.5v72m4-84v72.5m251.63 167.5v-76m4 12v64m-84.88-76v76m-4.25-76v76m-10.5-92v12m97.98 84h-97.98m95.63-4h-80.88m110.34 31.11 2.83-2.83m9.9 15.56-12.73-12.73m14.73 9.07-11.9-11.9m-25.46-25.45-2.83-2.83m0 5.66-1.66-1.66m1.66 1.66 2.83-2.83m-158.46 23.17v-16m-4 16v-36m0 36h4m0-20h44m22.5-6h-10.5m0 10h-8m-52-20h4m0 6v-6m0 16v-6m24 0h-24m24 0v-88m46.75 12h42.87m-57.62-4h57.62m36 4h2.01m-2.01-4h33.88m-27.87 12v-8m13.87 10v-12m14 14v-16m-14 12h-13.87m0-8h13.87m14 12h-27.87m-42.01-12v-4m36 4v-4m-105.62-8h-20m32-4h-60m60 16h10.5m-70.5-6h4m0 0v-6m-4 6v-10m24 4h-20m44-56h-20m43-12.5h-11m11-7v7m-11-7h11m4 11h-15m15-15v15m-171-15h120m36 27.5h-36m0 0v-12.5m-136 124.16-35.66-35.66m87.66 82-86-86m58 78h-104m104 0h-104m108-10.34 20 20m-20-20 20 20m4 10.34h-4m0-10.34v10.34m4 0v-12m0 12h-4m4 0v-12m-4 1.66v10.34m-48-36v-22.34m4 22.34v-18.34m18.34 18.34-18.34-18.34m24 34.34v-10.34m-4 6.34v-8m0 8h-24m24-8h-24m24 0h-104m104 8h-104m104 0v-8m-1.66-4h-18.34m-84 16v8m0-8v8m68-20h-68m68 8h-68m0-8v8m-8-8v16m8-16v8m-8-8v16m22.03-78h30.31m-30.31-4h31.97m-67.97 4v-4m36 4v-4m237.97-294v8m-48-8v16m171.5 8v11m0 0h-7m0 0v-11m11 15h-15m15-15v15m-15 0v-15m-24.5-16v16m-100 98h-32m32-4h-36m48-28h-12m-32 32v16m-4-20v24m16-4h-12m32-122h-20m20 24h-20m20 4h-24m36 4v-24m-12-8v24m12 8h-12m50-40h-38m38 16h-38m38-16v16m-74 20v-28m4 24v-24m32-16h-48m-50 0v16m-58 62h-32m28-4h-28m28 60h-28m32-12h-32m90-106h-58m-4 58v-94m4 98v-62m-32 62v-4m90-74h-46m0-48v48m-16-48h16m-16-50h16m-16-196v30m16-30v68m-16 50h16m-16-50h16m-16-194v36m16-36v76m-16 50h16m-16-50h16m-16-76h16m0-102v52m-16-36v36m0 0h16m-110-36v24m4-24v28m35-44v-42m14 42v-42m0 0h-14m-48-9v-6m62-25v-40m-14 40v-26m14 26h-14m-333 432v74m-16-78v78m246-54v42m-166 302v-67.5m4 177.5v-173.5m-80 23.5v40m-24-84v40m-16-40v70m44-30v44m242 14v-88m-4 0v92m-166-2h-128m128-16h-72m72 4h-100m100 8h-100m194 102v-126.5m100 176.5v-58m4 58v-58m-32 9v-13m4 13v-9m-170 16v-106m166 224v-76m4 76v-52m0 52h-4m4-89h-4m0 13v-13m4 13v-13m0 27v6m0-6v6m0-69h-4m-166 109h90m-94-4h94m4-4v12m-4-4v4m0 0h4m-4-12v4m0-4h4m0-102h-90m90 48h-90m86 16v2m0 0h4m0 0v-18m-90-4h-4m4 4v-4m-4 4v-4m4-36h-4m4 0v-8m190-8h-24m-166 4h86m0 0v-122.5m0 0h4m-94 16.5v8m-128 80v30m28-30v70m-16-40h-12m12 0v70m16 50h-16m16-50h-16m0-206h-12m28 106h-28m52-92h-24m-28-14v30m218-228h-154m144 4h-144m245.5 31.5v-35.5m-87.5 94v-206m72 58v156m4 0v-66.5m0 102.5h-4m4-36h-4m15.5-66.5h-11.5m-91.5 113h-74.5m86-18.5v14.5m4 19v-33.5m-4 14.5h-90m78.5 15v-11m11.5 11h-11.5m11.5 4h4m-4 0v-4m4-29.5h-4m0-96v60m4 0h-4m80-98v-50m0 74.5h7.51m0 0v-20.5m-7.51 0v20.5m0-74.5h-4m4-44v8m0-30v10m0 20h-4m-76 90v-98m0 102h-6m0 18v-18m6 0v18m0-134v2m4-2h-4m-206 132v58m52-106v28m-8 168h-28m24 4h-24m0-44h-16m16-92v42m0 0h-16m16-42h36m-16-64v48m0 0h-36m52-48h-16m16-50h-16m246-408v42m-72-42v42m-4-14v48m80-48v48m-90 50h-144m154 208h-114m35-4h-35m35-64h-75m75-4h-75m75-8h-75m104-4h-104m230-76v144m4-144v68m0 20v56m-4 36h4m0 0v8m-4-44h4m-155 0v-64m75 64v-56m4 76v-98m-4 90h-75m75-8h-75m75-4h-75m75 4v8m0 4v4m4 0h-4m-75-8v-8m-4 8v-64m65-12v-4m4 4h-4m14-4v-10m0 0h4m-54 14v-4m-29 12v-8m29 0h-25m155-80h-4m4-62h-4m4 0v10m0 16h-4m4-4v4m-4-26v26m4-62h-4m-76 58v70m4-92v92m-4 0h4m-4-92v10m0-10h4m-4-36h4m-174 136v68m16-68v38m4 80h-20m20 4h-4m4 0v-4m36 4v-4m-40-50h-16m0-194v76m16-76v36m0 90h-16m16-50h-16m16-76h-16m189-86h-15m15-16h-118m114-122h-128m14 122v-108m119 166h-16m16 4h-16m15-62v16m42-16v16m15 42h-16m16 4h-16m20-46v24m-60 22v-4m40 4v-4m-120-18h60m-64 4h64m0-28v24m-60-24v24m-4-24v28m63-95v-6m16-51h-114m164-14v14m-50-14v14m-126 22v50m4-50v50m-63 36v52m16-36v36m0 0h-16m57-52v-122m0 86h6m-6-50h6m465 817.5h-120m156-15h15m286.22 463.5v18m40 0v-18m-217.22-169.39v15.38m544 172.01v-18m50 0v18m76 0v-18m160 18h-4.29m-283.44-382v20m0-20h-44.27m44.27 20h-28.27m251.74 154.02h-32.3m.01 0v-6m32.29 0h-32.3m.01-72h32.3m-32.3-4h32.3m-32.3-34h32.3m-32.3-4h32.3m-32.3 42v-4m0-34v-4m94.55 309.98h-2.29m-55.71-108v20.94m2 87.06v18m58 48v-48m-58-18h-2m2 18h-52m46-126.06v21m62-20.94h-58m58 108v-108m-58-36.87h-57.45m-4-4.58h-25m0 0v3.43m0 0h3.69m0 0v8.7m25.31-16.13h-33m0 0v11.43m0 0h3.69m0 0v8.7m29.31-20.13v41.39m-29.31-21.26h25.31m0-16.13v12.13m0 47.26h4m-4-43.26v43.26m-21.31-47.26h21.31m-136 46h-4m29.31-43h-25.31m21.31-4h-21.31m29-15h-33m33 0v11.43m0 0h-3.69m0 0v7.57m-25.31-15h25m0 0v3.43m0 0h-3.69m0 0v7.57m-79.86 24v-17.69m0 0h-4m4.07 132.01v-55.32m58.48-94v11m-4 47v-19m4-24v43m-54.11-23h-4.44m0-53.69h-4m0 36v76.69m4.07 0v-55m-4.07 55v55.32m-114.93 0v-174m-8 174v-174m-209.85 174h-46.5m-146.72-118v144m12-8v72m26.72-90h-22.72m22.72 18h-26.72m181.22 0h-46.5m413.28 0h-326.78m326.78-18h-29.93m-4.07 0h-114.93m-8 0h-169.85m-49.22-169.39v-20.62m40 16.01v-16m-40 20.61h-168m770 82.33h-4m4 36h-4m0 0v51.06m4-51.06v51.06m16-150h24m0 0v24m-291.56 15.68h-4.44m0-57.69v-18m219.45-43.97v-4m0 4h32.3m-32.3-4h32.3m44.25-460.02v24m0 0h-24m20-24v20m0 0h-20m-64-36v-249.42m-13 0h13m-164 172.42v-172.42m13 172.42v-172.42m0 0h-13m13 172.42h-13m11.64-226.5h-9.14m7.14 0v-7.41m0 1.41h2m0 0v6m-2-7.41h-1.17m0 0v7.41m145.03-6h-2m0 0v6m-39.93 0h2m0 0v-6m0 0h-2m0 0v6m-62 0h2m0 0v-6m0 0h-2m0 0v6m99.43 319.5h2m0-6h-2m0 0v6m-138.5-55v-2m0 0h-8m0 0v2m0 0h8m0-36v-2m-8 0v2m0 0h8m0-174.42v-2m0 0h-8m0 0v2m8 51.09v-2m0 0h-8m0 0v2m0 0h8m0 51.08v-2m0 0h-8m0 0v2m0 0h8m0 51.08v-2m0 0h-8m0 0v2m0 0h8m0-205.33v-2m-8 0v2m0 0h8m143 52.08v-2m0 0h8m0 0v2m-8 51.09v-2m0 0h8m0 0v2m0 0h-8m0 51.08v-2m0 0h8m0 0v2m0 0h-8m0 51.08v-2m0 0h8m0 0v2m0 0h-8m0 51.09v-2m0 0h8m0 0v2m0 0h-8m0-256.42v-9.41m8 7.41h-10m10 0v2m0 0h-8m0 308.5v-2m0 0h8m0 0v2m-205.5 473h31.86m-31.86 4h31.86m0 0v-4m-31.86-38h31.93m-31.93 4h31.93m0 0v-4m165.57-752.91h1.17m0 0v7.41m-581.95 1031.5v-18m-130.72-154h-16m16 36h-16m16 0v118m22.72 18v-18m697.28 0v18m-244.34-1002v-56.58m0 0h56.09m0 0v56.58m0 0h-56.09m16-16v-24.58m0 0h24.09m0 0v24.58m0 0h-24.09m-15.12 216.1v-56.58m0 0h56.09m0 0v56.58m0 0h-56.09m16-16v-24.58m0 0h24.09m0 0v24.58m0 0h-24.09m245.37-184.1v-56.58m0 0h56.09m0 0v56.58m0 0h-56.09m16-16v-24.58m0 0h24.09m0 0v24.58m0 0h-24.09m-15.11 216.1v-56.58m0 0h56.09m-.01 0v56.58m0 0h-56.09m16.01-16v-24.58m0 0h24.09m-.01 0v24.58m0 0h-24.09m11.21 691.84h-53.45m57.45-4h-57.45m41.45-247.94h-18.1m18.1 12-18.1.02m0 0v-12.02m29.84 16.02h-33.84m0 0v-20.02m-19.35 215.13h53.2m-.01 0v-41.11m-251.74-116.02h32m-32 4h32m-32 110h31.79m.21-110v-4m-32 120h31.79m0 0v-6m-1073.79-838v-8m10-4h-154m154 12h-10m100-8v8m0 0h-10m-90 128v-8m10-4h-14m14 12h-10m100 0v-16m0 16h-10m-90 126v-12m0 0h10m0 12h-10m90-12h10m0 0v12m0 0h-10m-90 132v-30m4 18h6m0 12h-10m0 356v-12m0 0h-180m190 12h-10m88 0v-12m0 0h12m0 0v12m0 0h-12m0 0v-12m0 0h12m0 0v12m0 0h-12m208-228v-24m0 0h24m0 0v24m0 0h-24m4-4v-16m0 0h16m0 0v16m0 0h-16m-84-4v-12m302 86v-12m0 0h12m0 0v12m0 0h-12m-1.5 1.5v-15m0 0h15m0 0v15m0 0h-15m1 74.5h12m0 0v12m0 0h-12m-149.5 62v-84m0 84h-20m24-140v-80m-4 4h-12m287.75 66v-12m0 0h12m0 0v12m0 0h-12m-1.5 1.5v-15m0 0h15m0 0v15m0 0h-15m.25 86.5v-12m0 0h12m0 12h-12m151.25-88h-12m.63 76h12m743.62-910v-16m0 0h12m0 16h-12m112-16h12m0 0v16m0 0h-12m-112 206v-12m12 12h-12m0 196v-16m0 0h12m0 16h-12m124-208v12m0 0h-12m-4 196v-12m16-4h-12m12 0v16m0 0h-16m4-56v-18m-4 18v-97.19m0 97.19h4m-626 247v-12m0 0h12m0 0v12m0 0h-12m-2 2v-16m0 0h16m0 0v16m0 0h-16m516-9v-8m108 12v-16m0 0h16m0 0v16m0 0h-16m-108 384v-32m12 32h-12m112-140v-4m-4 4v-96m0 96h4m0 124h8m0 16h-8m-112-192v-16m0 0h10m0 16h-10m112-16h5.12m2.88 16h-8m-1650 334v-10m10 10h-10m0 138v-22m4 10h6m0 12h-10m100-12v12m0 0h-10m-90 132v-12m0 0h10m0 12h-10m90-12h10m0 0v12m0 0h-10m-90 280v-12m0 0h10m0 12h-10m90-154h6m4 12v-54m0 54h-10m-90 0v-12m0 0h10m0 12h-10m10 266h-10m0 0v12m0 0h10m80-130h10m0 0v12m0 108v10m0 0h-10m558-692v-16m0 12h-76m0 4v-16m0 4h76m0 2h-76m0 4h76m245 1090.25v15.25m0 0h-6m0-113h6m645-922.5v-12m12-4h-25.5m29.5 83.75v7.75m0 0h18m-34 120.5v-16m12 16h-12m124-208v12m0 0h-12m-4 196v-16m-92 79.75v7.75m0 0h18m-34 120.5v-16m12 16h-12m112-16h8m0 16h-8m-570.5 631.96v18.41m0 0h-15m-4-99.62v-150.75m4 131.5h15m0 0v19.25m178.5 91.25v-10m16 0v14m0 0h-68m68-110h-132m132 0v14m264-354v-16m12 16h-12m16 128v-132.25m-4 132.25v-58m-12 118v-8m16-16h-4m0 0v16m0 0h-12m108-180v-16m0 0h16m0 0v16m0 0h-16m0 88v-16m0 0h16m0 0v16m0 0h-16m4-4v-8m0 0h8m0 0v8m0 0h-8m12 104v-16.08m-98.73 32.08-1.27-1.27m2-.12-2-2m2-.12-.49-.49m116.49 236v14m0 0h-34m226 0v-14m196-82v-14m0 0h19m165 14v-14m0 0h6m-6 110v-14m6 14h-6m-1230-1221.08v-78.92m16-176v-20m-16 20v-82m292 424v-36m60 188v-64m-16 64v-52m-160 110h-76m76 18h-76m-302-208h-84m84 16h-84m-444 132h-8m1474-655h68m-98.25 100.08h-3.5m3.5 3.5v27.42m-3.5-30.92v30.92m-1535.25-614h-118m173 142v36m0 84v34m0 86v42m0 74v-24m4 257.5v.5m144-166v4m-24-32h-12m171.5 8h-7m-4 0h-24.5m1599 1312h12m4 0h44.5m106.5 254v-8m-167 136h52.5m-253.5 0h-1.5m-246.5 0h-11.5m-52.5 0h10.5m-382.5 0h54.5m-196-382h19m54.5 150.75v-36.75m238-114h-12m-6 0h-48m146 0h-8m106-16v-24m-4 40h-74m12-134h62m0-86h-12m16 7.75v-7.75m0-188.25v-7.75m-3.98 0h-12.02m16-184.25v-7.75m-4 0h-12m-17.5-196h-32.5m-4 0h-26m26-120h-170m118-14v-6m-96 6h96m-118 10v-6m0 106v-8m0-188v-30m130 34h-108m156 0h-8m-170-134v-30m-16-66v14m16-112v6m20-30h-20m60-140v-8m0-4v-38m79.8 42h-79.8m180 132v-206m-4 206h-32m32 16h-32m36-4v-8m-122-258h-58m0-4v-40m0 48v-4m0-228v-4m0-4v-56m214-182h2m-36 0v-42m-98-16h-98m16 150v-4m0-4v-26m58 30h-58m351 260h26m4 0h9m4 0h58m0 4v-4m0-4v-38m0-90v-34m0 283.5v-35.5m0 48v-7m0-379v-4m0-4v-26m-95 30h95m-108 690h16m-4-34h-8m85.31 144h-8m-4 0h-58.69m133.38 0h-2.7m18.7-16v-36m0 52v-12m0 288v-4m-228-84v-8m6 402h-18m180-4v-34m0 552v-56m144 188h54.75m-4.75 382h7m-966.5 0h-60m373.5-520v-14m0-4v-32m0-462v-34m-133.45-102.06v18m53.45 90.06h-46m-151.45-114.32v-39m197.19-42.66v-34m0-4v-34m0-4v-34m0-4v-34m434.01-222.02h8.88m-90.63-872v-42m-272 386v-38m128 524v16m0 0h-48m100 42v-104m92 104v-16m0 16h-10m94-946h-94m10 598v-4m0 4h-54m-554 314v-66m4 458v-34m0-4v-34m0-4v-34m0-4v-38m604 1006v-16.08m0 32.08h-10m134 382h64m-68-150h-32.2m-1632.3-1588h142.5m-158-486h-15m15 46v30m64-76h-60m-76 46v30m-68-76h-90m154 0h-60m-94 126v36m0 92v8m0 4v14m0 210v32m-36 136v40m0 4v8m100 150h-100m0 4v26m36 222v44m0 74v38m0 78v30m0 86v26m0 90v20m0 96v26m78 86h-78m154 0h-72m148 0h-11m53 0h-38m68-242h-58m62-16v-42m82 46v12m0 8v36m0-142v28m-86-28h-72m158-116v34m0-150v36m0-44v4m16 24v16m140-28h-20m-4 0h-92m228-48v48m-256-260h-166m154 26v110m-72-122h-82m194 122v-148m-40 152v100m-12-360h-114m114 0h-114m-4 0h-24m24 0h-24m600 112h-144.18m-33.82 16h-108m137.82-16h-145.82m-4-100v-94m0 98h-44m56-6v6m0-86v76m0-163.5v7m0 4v12.5m-36-27.5v-52.5m24-20v96m1494 298v-24m-140 40h-96m172 804h-10m-6 0h-52m-1857-1858h-57m1554 2090v-4m85.94 4v14m0 1.62v134.38m3.62-150v150m44.44-150v-4m-45 4v-4m-49 4v-4m49 3.37h5m-5-2.75h5m-33.62 19h25.56m-25.56 0v-15.62m0 0h1.62m0 0v14m23.94-14h3.62m-27.56 14h23.94m8.06-17.38v2.75m-5-2.75v2.75m-49-4.37v1h54v-1h-54zm0 5h49m-567.93-1084h-95.07m226.44 59.68v4m36 0h14.1m.01-4h-14.1m-.01 0v4m651.56-549.68h30.25m3.5-3.5v70.08m-3.5-3.5h-36.5m40 3.5h-40m36.5-66.58v63.08m-30.25-66.58h33.75m63.55 113.5v4m36-4v4m-36-4h-19.99m19.99 4h-108.05m54.75-410h-128m128-3.5h-128m0 0v-75.69m0-36h-4m4 36h-4m4-36v-6.81m-4 6.81v-30.81m-92 1359.75h18m-18 0v-36m18 0v36m0 4.25v7.75m-18-174h-4m4 36h-4m4-36v-14m-4 50v30m-646.37-606.38v-15m0 0h15m0 0v15m-13.5-1.5v-12m0 0h12m0 0v12m0 0h-12m-1.5 1.5h15" id="layer-A-WALL" style="stroke:#000;stroke-width:inherit;stroke-dasharray:0"/>
                <path d="M1015705 1252528.4v-52m16 52v-52m-956 1294h54.5m-54.5-16h54.5m-60.5-382h54.5m-54.5-16h54.5m1263.5 296v47m16-47v47m-440 71h54.5m-54.5-16h54.5m180.5 0h-42m42 16h-42m171-16h-54.5m54.5 16h-54.5m-180.5-16h42m-42 16h42m-560.5 0h-54.5m54.5-16h-54.5m240.5 0h-42m42 16h-42m116.5-16h54.5m-54.5 16h54.5m-199-16h-42m42 16h-42m-203.5-16h-54.5m54.5 16h-54.5m-185.5-16h42m-42 16h42m69 0h-42m42-16h-42m1130-207.5v33m0-152.5v47m-16 72.5v33m0-152.5v47m-178.75-118h-54.5m54.5 16h-54.5m181.25 0h-54.5m54.5-16h-54.5m-199 0h-54.5m54.5 16h-54.5m-56-64v-52m0-72v-52m0-320v-52m0 176v-52m0 176v-52m0-320v-52m-16 672v-52m0-72v-52m-468 52v-52m16 52v-52m-290.5 224h54.5m-54.5 16h54.5m688-560v-52m0 176v-52m0 176v-52m0-320v-52m-468 176v-52m16 52v-52m-16 176v-52m16 52v-52m-16 176v-52m16 52v-52m-487 618v54.5m-15.5-54.5v54.5m15.5-180.5v-54.5m-15.5 54.5v-54.5m-611.5-307.5v50m-16-50v50m0-274v50m16-50v50m0 60v50m-16-50v50m0-274v50m16-50v50m-235 486h50m-50 16h50m-235-102v50m16-50v50m0-172v50m-16-50v50m16-272v50m-16-50v50m0 62v50m16-50v50m-16-270v50m16-50v50m-16-162v50m16-50v50m-16-164v50m16-50v50m1090-562h50m-50-16h50m846-730v-52m-16 52v-52m-452 52v-52m-16 52v-52m484 672v-52m60 312v-42m-16 42v-42m0 222v42m16-42v42m24-102v-60m-18 0v60m-22-222v-52m16 52v-52m-60-230v-52m0-72v-52m0-72v-52m0-72v-52m-16 548v-52m-468 52v-52m16 52v-52m-352 310v-50m4 0v50m12-50v50m-4-50v50m280-110v-52m-16 52v-52m8 158v-52m8 52v-52m-16 52v-52m0-145h-46m46 12h-46m-230-3v44m16-44v44m46-41h-46m788-193v-52m0-72v-52m0-72v-52m0-72v-52m-452 424v-52m-16 52v-52m16-72v-52m-16 52v-52m16-72v-52m-16 52v-52m16-72v-52m-16 52v-52m267-296h-50m50-14h-50m-755 984h50m-50-16h50m-176 16h50m-50-16h50m-176 0h50m-50 16h50m-312-24h50m-50 16h50m86 8h50m-50-16h50m-248-106v50m16-50v50m0-422v50m-16-50v50m16 194v50m-16-50v50m0-168v50m16-50v50m-440 678v50m-16-50v50m0-226v76m16-76v76m0-226v50m-16-50v50m52-206v50m-16-50v50m16-422v50m-16-50v50m16 194v50m-16-50v50m16-168v50m-16-50v50m235-336h-50m50-14h-50m1047 1320h50m-50-18h50m-50 9.96h50m-50-1.5h50m76 9.54h50m-50-18h50m-50 9.96h50m-50-1.5h50m52 9.54h53.71m-53.71-1.5h53.71m-106.21-719.5v-308.5m-8 308.5v-308.5m6 306.5v-50.08m0-2v-49.08m0-2.01v-49.08m0-2v-49.08m0-2v-49.08m0-2.01v-50.08m-157 260.5v-260.5m2 203.33v-49.08m0-2v-49.08m0-2v-49.08m0-2.01v-50.08m0 224.5v-19.17m2 55.17v-34m4 36v-262.5m5.5 314.5h34m-36-3h38m0 6h-38m100-3h35m-37-3h39m-39 6h39m-139.36-322.5h37.93m64 0h37.93m-139.86 3h39.93m60 0h39.93m-139.86-6h39.93m60 0h39.93m-37.5 325.5v-6m-2 0v6m-60 0v-6m-2 0v6m-34 0v-6m-2 0v6m-3.5-9v-2m0 0h-8m0 0v2m8 0h-58.5m-1188.5-423h-3m0-2h3m175.5-165.5v-3m2 0v3m48 0h-50m48 0v-3m2 0h-50m50 0v3m-225.5 215.5v-50m0 50h-3m0 0v-50m0 48h3m0 80h-3m0-2h3m0 50v-50m0 50h-3m0 0v-50m0 48h3m0 72h-3m0-2h3m0 50v-50m0 50h-3m0 0v-50m0 48h3m0 82h-3m0-2h3m0 50v-50m0 50h-3m0 0v-50m0 48h3m-36 110h-3m0-2h3m0 50v-50m0 50h-3m0 0v-50m0 48h3m0 104h-3m0-2h3m0 76v-76m0 76h-3m0 0v-76m0 74h3m0 104h-3m0-2h3m0 50v-50m0 50h-3m0 0v-50m0 48h3m437-900h3m0-2h-3m0 50v-50m0 50h3m0 0v-50m0 48h-3m0 80h3m0-2h-3m0 50v-50m0 50h3m0 0v-50m0 48h-3m0 72h3m0-2h-3m0 50v-50m0 50h3m0 0v-50m0 48h-3m0 82h3m0-2h-3m0 50v-50m0 50h3m0 0v-50m0 48h-3m57.5 56.5v3m-2 0v-3m50 0h-50m50 0v3m0 0h-50m48 0v-3m90 8v3m-2 0v-3m50 0h-50m50 0v3m0 0h-50m48 0v-3m80 0v3m-2 0v-3m50 0h-50m50 0v3m0 0h-50m48 0v-3m80 0v3m-2 0v-3m50 0h-50m50 0v3m0 0h-50m48 0v-3m128 0h-50m50 0v3m0 0h-50m48 0v-3m-46 0v3m-2 0v-3m128 0v3m-2 0v-3m421.5-788.5h-3m0 2h3m207.5-179.5v-3m2 0v3m48 0h-50m48 0v-3m2 0h-50m50 0v3m207.5 177.5h3m0 2h-3m-465 50v-52m0 50h-3m0 2v-52m0 52h3m0 72h-3m0 2h3m0 50v-52m0 50h-3m0 2v-52m0 52h3m0 72h-3m0 2h3m0 50v-52m0 50h-3m0 2v-52m0 52h3m0 72h-3m0 2h3m0 50v-52m0 50h-3m0 2v-52m0 52h3m0 72h-3m0 2h3m0 50v-52m0 50h-3m0 2v-52m0 52h3m0 72h-3m0 2h3m-339 123h3m0-2h-3m55.5-9.5h-46m44 0v3m2 0h-46m46 0v-3m-46 0v3m2 0v-3m-44 55h-50m50 0v3m0 0h-50m48 0v-3m34.5-6.5v-39m0 39h3m0 0v-39m0 37h-3m223.5-46.5v3m2 0v-3m44 0h-46m44 0v3m2 0h-46m46 0v-3m69.5-61.5v-52m0 50h-3m0 2v-52m0 52h3m-60 96h-3m0 2h3m0 50v-52m0 50h-3m0 2v-52m0 52h3m585-42h3m0 2h-3m0 50v-52m0 50h3m0 2v-52m0 52h-3m0 60h3m0 2h-3m0 40v-42m0 40h3m0 2v-42m0 42h-3m24 60h3m0 2h-3m0 58v-60m0 58h3m0 2v-60m0 60h-3m-24 62h3m0-2h-3m0 42v-42m0 42h3m0 0v-42m0 40h-3m0 62h3m0 2h-3m-60-544v-52m0 50h3m0 2v-52m0 52h-3m0-52h3m0 2h-3m0-74v-52m0 50h3m0 2v-52m0 52h-3m0-52h3m0 2h-3m0-74v-52m0 50h3m0 2v-52m0 52h-3m0-52h3m0 2h-3m0-74v-52m0 50h3m0 2v-52m0 52h-3m0-52h3m0 2h-3m0-74v-52m0 50h3m0 2v-52m0 52h-3m0-52h3m0 2h-3m0-74v-52m0 50h3m0 2v-52m0 52h-3m-1983 1260h-3m0-2h3m0 50v-50m0 50h-3m0 0v-50m0 48h3m0 68h-3m0-2h3m0 50v-50m0 50h-3m0 0v-50m0 48h3m0 66h-3m0-2h3m0 50v-50m0 50h-3m0 0v-50m0 48h3m0 62h-3m0-2h3m0 50v-50m0 50h-3m0 0v-50m0 48h3m0 66h-3m0-2h3m0 50v-50m0 50h-3m0 0v-50m0 48h3m0 64h-3m0-2h3m0 50v-50m0 50h-3m0 0v-50m0 48h3m0 76h-3m0-2h3m0 50v-50m0 50h-3m0 0v-50m0 48h3m177.5 44.5v3m-2 0v-3m50 0h-50m50 0v3m0 0h-50m48 0v-3m180.5-540.5h-3m0-2h3m0 50v-50m0 50h-3m0 0v-50m0 48h3m0 68h-3m0-2h3m0 50v-50m0 50h-3m0 0v-50m0 48h3m0 64h-3m0-2h3m0 50v-50m0 50h-3m0 0v-50m0 48h3m0 68h-3m0-2h3m0 50v-50m0 50h-3m0 0v-50m0 48h3m688.5 176.5v3m-2 0v-3m-63 83h3m0 2h-3m0 52.5v-54.5m0 52.5h3m0 2v-54.5m0 54.5h-3m0 128h3m0-2h-3m0 54.5v-54.5m0 54.5h3m0 0v-54.5m0 52.5h-3m71 85v-3m-2 0v3m421.5-1003.5h-3m0 2h3m0 50v-52m0 50h-3m0 2v-52m0 52h3m0 72h-3m0 2h3m0 50v-52m0 50h-3m0 2v-52m0 52h3m0 72h-3m0 2h3m0 50v-52m0 50h-3m0 2v-52m0 52h3m-373 302.5h-54.5m54.5 0v3m0 0h-54.5m52.5 0v-3m93 0v3m-2 0v-3m54.5 0h-54.5m54.5 0v3m0 0h-54.5m52.5 0v-3m231.5-230.5h-3m0 2h3m0 50v-52m0 50h-3m0 2v-52m0 52h3m525-656v-52m0 50h3m0 2v-52m0 52h-3m5.5 837.5v-3m2 0v3m52.5 0h-54.5m52.5 0v-3m2 0h-54.5m54.5 0v3m72.25 0v-3m2 0v3m52.5 0h-54.5m52.5 0v-3m2 0h-54.5m54.5 0v3m72.25 0v-3m2 0v3m52.5 0h-54.5m52.5 0v-3m2 0h-54.5m54.5 0v3m61.5 63.5h-3m0-2h3m0 47v-47m0 47h-3m0 0v-47m0 45h3m0 76.5h-3m0-2h3m0 33v-33m0 33h-3m0 0v-33m0 31h3m0 76.5h-3m0-2h3m-435-344v-52m0 50h3m0 2v-52m0 52h-3m0-52h3m0 2h-3m0-74v-52m0 50h3m0 2v-52m0 52h-3m0-52h3m0 2h-3m0-74v-52m0 50h3m0 2v-52m0 52h-3m0-52h3m0 2h-3m0-74v-52m0 50h3m0 2v-52m0 52h-3m0-52h3m0 2h-3m0-74v-52m0 50h3m0 2v-52m0 52h-3m0-52h3m0 2h-3m0-74v-52m0 50h3m0 2v-52m0 52h-3m0-52h3m0 2h-3m-832 1125.5h-54.5m54.5 0v-3m0 0h-54.5m52.5 0v3m78.5 0v-3m-2 0v3m42 0h-42m42 0v-3m0 0h-42m40 0v3m29 0v-3m2 0v3m40 0h-42m40 0v-3m2 0h-42m42 0v3m74.5 0v-3m2 0v3m52.5 0h-54.5m52.5 0v-3m2 0h-54.5m54.5 0v3m75 0v-3m2 0v3m52.5 0h-54.5m52.5 0v-3m2 0h-54.5m54.5 0v3m74 0v-3m2 0v3m40 0h-42m40 0v-3m2 0h-42m42 0v3m28 0v-3m2 0v3m40 0h-42m40 0v-3m2 0h-42m42 0v3m76.5 0v-3m-2 0v3m54.5 0h-54.5m54.5 0v-3m0 0h-54.5m52.5 0v3m131 0h-54.5m54.5 0v-3m0 0h-54.5m52.5 0v3m78.5 0v-3m-2 0v3m42 0h-42m42 0v-3m0 0h-42m40 0v3m24 0v-3m2 0v3m40 0h-42m40 0v-3m2 0h-42m42 0v3m74.5 0v-3m2 0v3m52.5 0h-54.5m52.5 0v-3m2 0h-54.5m54.5 0v3m69.5-64.5v-47m0 47h-3m0 0v-47m0 45h3m-431.5 66.5v-3m-2 0v3" id="layer-A-GLAZ" style="stroke:#000;stroke-width:inherit;stroke-dasharray:0"/>
                <g id="layer-A-DETL-ACCS" style="stroke:#000;stroke-width:inherit;stroke-dasharray:0">
                    <path d="M1015645 1252552.4v-88m-1 27v-27m203 1214-10 8m10 0-10-8m-440 76 64-26m-64 0 64 26m-490-68-10-8m10 0-10 8m608-1130 136 12m-136 0 136-12m-618 688.39v-286.39m3 289.19v-241.19m-1 240.92v-239.92m178 396.62h-78m0 0 78 114.38m-78 0 78-114.38m-78 114.38h78m130 116 64 26m-64 0 64-26m-194-116v-114.38m-249 14.38v-46m11 46v-46m11 46v-46m11 46v-46m11 46h-101m228 100v-114.38m-171 58.38v46m11-46v46m11-46v46m11-46v46m11-46v46m-55 0v-136m-46 79h46m-46-11h46m-46-11h46m83-181.81-49 84.81m46-87.61-50 86.54m52-84.01-49 84.81m1 24.27v-24m-4 24v-25.07m3 25.07v-24.27m533-731.73-32-28m0 28 32-28m62 56v1m0-1h10m-10 1h10m-68-1h22m-23 1h23m-22-25v24m-1-24v25m23-1v1m8-77v-60m37 60v-60m-36 60v-60m-7 0h6m-6 0v-1m37 0h6m-6 1h6m-36 0h6m24 0v-1m-24 1v-1m-13 0h13m-43 61v-60m-1 60v-61m7 1h-6m6-1h-7m7 1v-1m-270 4.5 32.5 72.5m-32.5 0 32.5-72.5m-198.5 462.5h-116m113 3h-109m108 1h-108m112 98v-102m-4 106v-102m1 101v-102m37.93 69h-34.93m36-11h-36m36-11h-36m0 52h36m-40 4h40m-39-1h39m-29.4-11h-6.6m20.86-11h-20.86m-109-35v-44m11 44v-44m11 44v-44m11 44v-44m-40-4v52m51-4v-44m13 45h-60m58 3h-62m65-4h-61m0 0v1m0-46v1m-476.5 788v-108m138 108h-138m138 8h-151.5m-630-596 38 36m-38 0 38-36m-38 150 38 24m-38 0 38-24m681.5 322h-89.5m97.5 8h-84m84 0v-256m-8 248v-248m22.32 68h-14.32m29.27 0h-.52m-28.52 11h-.23m54-66h-54m54 22h-54m54-11h-54m42.65 22h-42.65m28.5 11h-28.5m54-55h-54m0-2h-8m-625.5-232v134.5m12-134.5v134.5m48-55.5h-48m124 19v60m-60 0h60m-60-60h60m-184-8h48m-48-11h48m-48 22h48m-48 11h48m-48 11h48m-48 11h48m12 .5h-12m60-66.5h-48m48-33h-48m48 22h-48m48-11h-48m48-22h-48m48-11h-48m48-11h-48m-60 66h48m-48-22h48m-48 11h48m-48-22h48m0-35h12m200-310h60m0-60v60m-60-60v60m-108.16-82.11 84.65-106.27m-84.65 0 84.65 106.27m0-106.27h-84.65m0 106.27h84.65m31.51-116.89h52m-52 11h52m-52 11h52m-52 33h52m-52-11h52m-52-11h52m4-11h52m-52-11h52m-52-11h52m-52 33h52m-139.51 83.89v-106.27m31.51-32.62h52m-52 11h52m4-33h52m-52 11h52m-52 11h52m-52 11h52m-330 122 62 4m-62 0 62-4m43.84 5.89v-106.27m-111.84-129.62 68 8m-68 0 68-8m-306 798 72 12m-72 0 72-12m1012-1335h-389.38m389.38-8h-386.04m450.04-60h-425m425-8h-421.66m319.66-272.79a288 288 0 0 1-248-285.21m248 309.43a312 312 0 0 1-272-309.43m533.21 143.29v-426.53m-144.71 843.88v-69.63m1.5 69.63v-69.63m66.75 68.6v-67.81m-1.5 67.81v-67.81m290.95 367.2 78-94m0 94v-94m-78 0 78 94m-78 0v-94m366.8 344h1m-1-36h1m0 0v-4m-1 4v-4m-414-76v-48m88 48v-48m-11 48v-48m-11 48v-48m-11 48v-48m-11 48v-48m-11 48v-48m-11 48v-48m-11 48v-48m36.2-86h78m185.8-246 32 28m-32 0 32-28m-216 134-32-36m0 36 32-36m-1.8 54h-78m-58.2 228v-48m-11 48v-48m-11 48v-48m-356 42v-12m-33 12v-12m0 12h33m0-12h-33m33-96v-12m-33 12v-12m33 12h-33m0-12h33m215-315.5h-138m69.75 8.11h-1.5m-146.25 66.39v-60m1 68v-8m80-65.36h-1.5m136.5-31.14h-138m138-11h-138m138 22h-138m223-140.32v-41.18m0 139.52v-151.52m36 8.39h-36m36 11h-36m36-22h-36m36 33h-36m-153.25 114.41h-1.5m-65.25-.8h-1.5m66.75-37.3v-69.12m1.5 69.12v-69.12m0 69.12h-1.5m1.5-69.12h-1.5m-65.25 70.08v-70.58m-1.5 70.58v-70.58m1.5 70.58h-1.5m1.5-70.58h-1.5m257.5-240.79h-112.79m210.79-340.29h-52m52-6h-58m404 46v-46m-58 6h52m0 40v-40m-52-6h58m-163-62v51m-11-51v51m22-51v51m11-51v51m-143 6v51m33 0v-51m-11 51v-51m-11 51v-51m33 51v-51m11 51v-51m11 51v-51m-11-57v51m44-51v51m-11-51v51m-11-51v51m-11-51v51m-66 0v-51m11 0v51m11-51v51m11-51v51m11-51v51m-164 57v-46m6 46v-40m-1089 90v180m8-180v180m60-180v392m8-392v388.71m-301 775.29 54-16m-44 0 44 16m-54-882 60 24m-60 0 60-24m-50 866 44 16m-54 0 54-16m517-475-278-281m281.34 273-273.34-276.29m244.96 344.29-312.96-316.34m309.62 324.34-317.62-321.05m604.25 665.55v22.5m-12-22.5v22.5m12 0h-12m-222.25-435v60m-40.88-77.06-42.65 42.2m-229.47 211.86 20 96m-20 0 20-96m-20 246 20-94m-20 0 20 94m-20-328 20-24m-20 0 20 24m344-721h-24m-397 121v191.95m8-191.95v188.66m0-44.66h60m16.88 37.06-42.65 42.2m-34.23-283.26h60m0 60h-180m-73-19v-51m11 51v-51m-11 57v51m11-51v51m182-86h-120m-359 800-24-40m0 40 24-40m76 44-100 8m0-8 100 8m188-783v-51m11 51v-51m-22 51v-51m-11 51v-51m-11 51v-51m-11 51v-51m-11 51v-51m-11 51v-51m-11 51v-51m-22 51v-51m11 51v-51m88 57v51m-11-51v51m22-51v51m-33-51v51m-11-51v51m-65 40-60-24m60 0-60 24m441-306h-76m958.9 1250.02v-34m-144.35 80.09h78m-81.69 13.14h85.38m-82.64-5.14h82.64m62.66-92.09v-34m0-4v-34m0-4v-34m79.81 343.98h-53.71m-64.5-778.36v-69.63m-1.5 69.63v-69.63m0 69.63h1.5m-1.5-69.64h1.5m-1.5-36.34v-70.58m1.5 70.58v-70.58m-1.5 70.58h1.5m-1.5-70.58h1.5m122.5-105.08h-374m0 0v279m-325.28 781h-108m749.28 0 53.71-24m-433.25 148.05h-66.87m66.87-45.87h-230.46m147.32 0v-60.18m-11 60.18v-60.18m-11 60.18v-60.18m-11 60.18v-60.18m-11 60.18v-60.18m-11 60.18v-60.18m-11 60.18v-60.18m-11 60.18v-60.18m-246.58 106.05h-57.74m902-1074.66h-36m36 11h-36m36 11h-36m36 11h-36m36 11h-36m36 11h-36m36 11h-36m-28.8 172.85v-70.56m-1.5 70.56v-70.56m1.5 70.56h-1.5m1.5-70.56h-1.5m1.5-59.35v-140.64m-1.5 140.64v-140.64m1.5 140.64h-1.5m1.5-140.64h-1.5m-54.7 89.81h-138m138-22h-138m138-11h-138m138 22h-138m-13 130.5v-8m741.5 624a1.5 1.5 0 0 1-1.5 1.5m3-1.5a3 3 0 0 1-3 3m1.5-3v-30m1.5 30v-30m-3 31.5v1.5m0-36v1.5m0 0a1.5 1.5 0 0 1 1.5 1.5m-1.5-3a3 3 0 0 1 3 3m-69.5 104a1.5 1.5 0 0 1-1.5 1.5m3-1.5a3 3 0 0 1-3 3m1.5-3v-30m1.5 30v-30m-3 31.5v1.5m0-36v1.5m0 0a1.5 1.5 0 0 1 1.5 1.5m-1.5-3a3 3 0 0 1 3 3m12-7.5a1.5 1.5 0 0 1-1.5-1.5m1.5 3a3 3 0 0 1-3-3m3 1.5h30m-30 1.5h30m-31.5-3h-1.5m36 0h-1.5m0 0a1.5 1.5 0 0 1-1.5 1.5m3-1.5a3 3 0 0 1-3 3m62-24.5a1.5 1.5 0 0 1 1.5 1.5m-1.5-3a3 3 0 0 1 3 3m-3-1.5h-30m30-1.5h-30m31.5 3h1.5m-36 0h1.5m0 0a1.5 1.5 0 0 1 1.5-1.5m-3 1.5a3 3 0 0 1 3-3m-1970-751.5a1.5 1.5 0 0 1-1.5-1.5m1.5 3a3 3 0 0 1-3-3m3 1.5h30m-30 1.5h30m-31.5-3h-1.5m36 0h-1.5m0 0a1.5 1.5 0 0 1-1.5 1.5m3-1.5a3 3 0 0 1-3 3m-37.5 42a1.5 1.5 0 0 1-1.5 1.5m3-1.5a3 3 0 0 1-3 3m1.5-3v-30m1.5 30v-30m-3 31.5v1.5m0-36v1.5m0 0a1.5 1.5 0 0 1 1.5 1.5m-1.5-3a3 3 0 0 1 3 3m1384 1607v-46m0 90h-101m101 4h-4v-4m0-44v-4h4m-55 52h-4v-4m0-44v-4h4m83-199.11h5.5v5.5h-5.5m0-102.45h5.5v-5.5h-5.5m0-96.94h5.5v-5.5h-5.5m-545.5 748v-124m0 118.5h-5.5v5.5m89.5-135.18h-5.5v5.5h5.5m0-186h-5.5v5.5h5.5m-89.5 186.18v5.5h5.5m-13.5-2292.5v-24h24v24h-24zm4-4v-16h16v16h-16zm642 1491.28h-838.26v-50.28m-6 34.05v-34.05m342.85-13.32h-165.09v-58.68m165.09 57.18h-163.59v-57.18m-3 60.18v-60.18m163.59 60.18v45.87m3-48.87v1.5m-9 1.5v51.9m72.87-6.03v-104.77m6.25 104.77v-104.77m0 104.77h431.29m-510.41 6h-391.59m606-474.05v38m0 4v34m0 4v34m0 4v34m178.55 98.3h53.45m-24.04-55.17v-41.11m17.03 41.11v-41.11m-736.27 207.98v21.98h15.9v-21.98m76.2 0v21.98h15.9v-21.98h-108m647.28-18v-12h50v12m52 0v-24h53.71v24m-497.12 21h-109.96v-3m109.96 1.5h-108.46v-1.5m108.46 1.5v1.5m969.41-251h60m-607-328.5v53m8 8-8-8m19 8h-11m11-69h-11m-8 8 8-8"/>
                    <use xlink:href="#FW-PP012" x="67686.659" y="69632.967" transform="scale(15 18)" stroke-width="0"/>
                    <circle r="72" cx="1014843" cy="1251355.4"/>
                    <use xlink:href="#FW-PP001" x="42316.208" y="83503.493" transform="matrix(0 -15 24 0 -988494.72 1887295.5)" stroke-width="0"/>
                    <use xlink:href="#FW-PP012" x="67697.933" y="69581.934" transform="scale(15 18)" stroke-width="0"/>
                    <use xlink:href="#FW-PP001" x="42317.75" y="83503.493" transform="matrix(0 -15 24 0 -988457.76 1887318.6)" stroke-width="0"/>
                    <use xlink:href="#FW-PP001" x="42319.292" y="83503.493" transform="matrix(0 -15 24 0 -988420.8 1887341.7)" stroke-width="0"/>
                    <use xlink:href="#FW-PP001" x="42315.708" y="83505.893" transform="matrix(24 0 0 -15 -.072 2505176.7)" stroke-width="0"/>
                    <use xlink:href="#Urinal" x="975279.939" y="1202923.653" transform="rotate(-180 1015559.002 1252604.397) scale(1.0413)" stroke-width=".001"/>
                    <use xlink:href="#FW-PP012" x="67697.933" y="69580.333" transform="scale(15 18)" stroke-width="0"/>
                    <use xlink:href="#FW-PP012" x="67699.239" y="69591.133" transform="matrix(0 18 -15 0 2059355.55 34054.02)" stroke-width="0"/>
                    <use xlink:href="#FW-PP012" x="67701.161" y="69591.133" transform="matrix(0 18 -15 0 2059384.35 34019.46)" stroke-width="0"/>
                </g>
                <path d="M1014907.5 1251967.4h78.28m0 0v315m322.47 0h-322.48m322.48 0v-50.56" id="layer-ROUTES" style="stroke:#136735;stroke-width:inherit;stroke-dasharray:0"/>
                <g id="layer-TEXT-ADA" style="stroke:#7f0000;stroke-width:inherit;stroke-dasharray:0">
                    <path d="M1013329.97 1251005.84h-68.16m.01 26.56-26.56-26.56 26.56-26.56v53.12zm3734.93-97.43 48.19-48.19m-18.78-18.79h37.56v37.56l-37.56-37.56z" style="stroke:#000;stroke-width:inherit;stroke-dasharray:0"/>
                    <path d="m1012339.03 1252319.94-48.19 48.19m-18.79-18.78v37.56h37.56l-37.56-37.56zm66.98-80.66-48.19-48.19m-18.79 18.78v-37.56h37.56l-37.56 37.56zm153.75-862.49v-68.16m-26.56 0 26.56-26.56 26.56 26.56h-53.12z"/>
                </g>
            </g>
            <g id="text" font-family="Arial" font-size="20.8" font-weight="normal" text-anchor="middle" dominant-baseline="alphabetical" fill="#000" xml:space="preserve">
                <g id="layer-TEXT-ADA-text" font-size="78" text-anchor="start" fill="#7f0000" stroke="#7f0000" stroke-width=".02">
                    <text transform="translate(1013381.8 1251031.37)" fill="#000" stroke="#000">DORNER DR</text>
                    <text transform="translate(1015678.13 1250957.68)" fill="#000" stroke="#000">LINCOLN AVENUE RESIDENCE</text>
                    <text transform="translate(1012388.33 1252322.75)">FAR NW AND SW PARKING LOT</text>
                    <text transform="translate(1012496.92 1251403.09)">LINCOLN AVE RESIDENCE</text>
                </g>
            </g>
            <g id="asset-labels" font-family="Arial" font-weight="bold" font-size="1.5em" text-anchor="middle">
                <g id="rm-labels" font-size="1em">
                    <text transform="translate(1014656.89 1252141.82)" id="l-rm-0003;01;0139">0139</text>
                    <text transform="translate(1013869 1252456.4)" id="l-rm-0003;01;C0190">C0190</text>
                    <text transform="translate(1015425 1252752.4)" id="l-rm-0003;01;C0195">C0195</text>
                    <text transform="translate(1015417.1 1253451.35)" id="l-rm-0003;01;C0196">C0196</text>
                    <text transform="translate(1015281.01 1252963.4)" id="l-rm-0003;01;0118" font-size="19.5">0118</text>
                    <text transform="translate(1014540.54 1252607.47)" id="l-rm-0003;01;0138">0138</text>
                    <text transform="translate(1015555 1252912.1)" id="l-rm-0003;01;0119A">0119A</text>
                    <text transform="translate(1014987 1252113.4)" id="l-rm-0003;01;C0192">C0192</text>
                    <text transform="translate(1015587 1252283.4)" id="l-rm-0003;01;0111B">0111B</text>
                    <text transform="translate(1015555 1251874.59)" id="l-rm-0003;01;0109">0109</text>
                    <text transform="translate(1014986.87 1252455.24)" id="l-rm-0003;01;C0193A">C0193A</text>
                    <text transform="translate(1015419 1251531.4)" id="l-rm-0003;01;C0194">C0194</text>
                    <text transform="translate(1014532 1252266.09)" id="l-rm-0003;01;C0191">C0191</text>
                    <text transform="translate(1014987 1251837.65)" id="l-rm-0003;01;S0192A">S0192A</text>
                    <text transform="translate(1013988 1252129.4)" id="l-rm-0003;01;0161A">0161A</text>
                    <text transform="translate(1015437 1251972.4)" id="l-rm-0003;01;0111">0111</text>
                    <text transform="translate(1014064 1252331.4)" id="l-rm-0003;01;C0149">C0149</text>
                    <text transform="translate(1014987 1252619.45)" id="l-rm-0003;01;0138A">0138A</text>
                    <text transform="translate(1015587 1252496.4)" id="l-rm-0003;01;0113" font-size="19.5">0113</text>
                    <text transform="translate(1015419 1251141.8)" id="l-rm-0003;01;STAIR3">STAIR3</text>
                    <text transform="translate(1013734 1252098.52)" id="l-rm-0003;01;0156" font-size="19.5">0156</text>
                    <text transform="translate(1015069 1253447.4)" id="l-rm-0003;01;STAIR1" font-size="15.6">STAIR1</text>
                    <text transform="translate(1013869 1251460.4)" id="l-rm-0003;01;STAIR4" font-size="19.5">STAIR4</text>
                    <text transform="translate(1014987 1252278.4)" id="l-rm-0003;01;C0193">C0193</text>
                    <text transform="translate(1014249 1252655.4)" id="l-rm-0003;01;STAIR6">STAIR6</text>
                    <text transform="translate(1013988 1253219.4)" id="l-rm-0003;01;STAIR5">STAIR5</text>
                    <text transform="translate(1014792.75 1253447.77)" id="l-rm-0003;01;0137B">0137B</text>
                    <text transform="translate(1015115 1253679.4)" id="l-rm-0003;01;0133">0133</text>
                    <text transform="translate(1014792.75 1253679.52)" id="l-rm-0003;01;0137A">0137A</text>
                    <text transform="translate(1015281 1251419.4)" id="l-rm-0003;01;0102" font-size="19.5">0102</text>
                    <text transform="translate(1015555.01 1253169.16)" id="l-rm-0003;01;0119B">0119B</text>
                    <text transform="translate(1015296 1251924.4)" id="l-rm-0003;01;0112" font-size="19.5">0112</text>
                    <text transform="translate(1015281 1252647.4)" id="l-rm-0003;01;0118A" font-size="19.5">0118A</text>
                    <text transform="translate(1013754 1251940.49)" id="l-rm-0003;01;0154" font-size="19.5">0154</text>
                    <text transform="translate(1014286.75 1252153.4)" id="l-rm-0003;01;0143">0143</text>
                    <text transform="translate(1015993.5 1253447.4)" id="l-rm-0003;01;0122">0122</text>
                    <text transform="translate(1015993.5 1253679.4)" id="l-rm-0003;01;0121">0121</text>
                    <text transform="translate(1015256.99 1252261.92)" id="l-rm-0003;01;0193B">0193B</text>
                    <text transform="translate(1014139 1252141.65)" id="l-rm-0003;01;0161">0161</text>
                    <text transform="translate(1015557 1251277.4)" id="l-rm-0003;01;0101" font-size="19.5">0101</text>
                    <text transform="translate(1015281 1251277.4)" id="l-rm-0003;01;0100" font-size="19.5">0100</text>
                    <text transform="translate(1015558 1253446.4)" id="l-rm-0003;01;0128">0128</text>
                    <text transform="translate(1015557 1251538.4)" id="l-rm-0003;01;0105" font-size="19.5">0105</text>
                    <text transform="translate(1015557 1251408.4)" id="l-rm-0003;01;0103" font-size="19.5">0103</text>
                    <text transform="translate(1015281 1251665.4)" id="l-rm-0003;01;0106" font-size="19.5">0106</text>
                    <text transform="translate(1015707 1253446.4)" id="l-rm-0003;01;0126">0126</text>
                    <text transform="translate(1015558.07 1251683.98)" id="l-rm-0003;01;0107">0107</text>
                    <text transform="translate(1015555 1253304.47)" id="l-rm-0003;01;0119">0119</text>
                    <text transform="translate(1015557 1252659.22)" id="l-rm-0003;01;0117">0117</text>
                    <text transform="translate(1015214.75 1252508.47)" id="l-rm-0003;01;0118B">0118B</text>
                    <text transform="translate(1015296 1251789.4)" id="l-rm-0003;01;0108" font-size="19.5">0108</text>
                    <text transform="translate(1014799.54 1252607.47)" id="l-rm-0003;01;0138C">0138C</text>
                    <text transform="translate(1015262 1252422.22)" id="l-rm-0003;01;0114">0114</text>
                    <text transform="translate(1015625.88 1252072.4)" id="l-rm-0003;01;0111A">0111A</text>
                    <text transform="translate(1013752 1251718.5)" id="l-rm-0003;01;0152" font-size="19.5">0152</text>
                    <text transform="translate(1013746.36 1252577.65)" id="l-rm-0003;01;0164">0164</text>
                    <text transform="translate(1015773 1253679.4)" id="l-rm-0003;01;0125">0125</text>
                    <text transform="translate(1014951.25 1253679.38)" id="l-rm-0003;01;0135">0135</text>
                    <text transform="translate(1015216 1252152.4)" id="l-rm-0003;01;0112A" font-size="19.5">0112A</text>
                    <text transform="translate(1013986 1252587.4)" id="l-rm-0003;01;0165">0165</text>
                    <text transform="translate(1013986 1251714.5)" id="l-rm-0003;01;0153" font-size="19.5">0153</text>
                    <text transform="translate(1015649 1253679.4)" id="l-rm-0003;01;0125A">0125A</text>
                    <text transform="translate(1013986 1251954.5)" id="l-rm-0003;01;0157" font-size="19.5">0157</text>
                    <text transform="translate(1015261 1252041.4)" id="l-rm-0003;01;0110">0110</text>
                    <text transform="translate(1013986 1251834.5)" id="l-rm-0003;01;0155" font-size="19.5">0155</text>
                    <text transform="translate(1015525 1253679.4)" id="l-rm-0003;01;0127">0127</text>
                    <text transform="translate(1013747.36 1252698.15)" id="l-rm-0003;01;0166">0166</text>
                    <text transform="translate(1015847.5 1253447.4)" id="l-rm-0003;01;0124">0124</text>
                    <text transform="translate(1013747.36 1252931.15)" id="l-rm-0003;01;0170">0170</text>
                    <text transform="translate(1013747.36 1252815.15)" id="l-rm-0003;01;0168">0168</text>
                    <text transform="translate(1013747.36 1253047.15)" id="l-rm-0003;01;0172">0172</text>
                    <text transform="translate(1013747.36 1253163.15)" id="l-rm-0003;01;0174">0174</text>
                    <text transform="translate(1013986 1252825.46)" id="l-rm-0003;01;0169">0169</text>
                    <text transform="translate(1013752 1251591.5)" id="l-rm-0003;01;0150" font-size="19.5">0150</text>
                    <text transform="translate(1013986 1251591.5)" id="l-rm-0003;01;0151" font-size="19.5">0151</text>
                    <text transform="translate(1013992 1252460.5)" id="l-rm-0003;01;0163" font-size="19.5">0163</text>
                    <text transform="translate(1013986 1252936.4)" id="l-rm-0003;01;0171">0171</text>
                    <text transform="translate(1013681.21 1252453.4)" id="l-rm-0003;01;0160">0160</text>
                    <text transform="translate(1013747.36 1253279.15)" id="l-rm-0003;01;0176">0176</text>
                    <text transform="translate(1013986 1252711.46)" id="l-rm-0003;01;0167">0167</text>
                    <text transform="translate(1015248 1253317.4)" id="l-rm-0003;01;0120">0120</text>
                    <text transform="translate(1014135.12 1252532.4)" id="l-rm-0003;01;C0149E">C0149E</text>
                    <text transform="translate(1013795.89 1252292.34)" id="l-rm-0003;01;0158A">0158A</text>
                    <text transform="translate(1013689 1252317.4)" id="l-rm-0003;01;0158" font-size="19.5">0158</text>
                    <text transform="translate(1014287.91 1252453.47)" id="l-rm-0003;01;0146">0146</text>
                    <text transform="translate(1014436.91 1252453.47)" id="l-rm-0003;01;0144">0144</text>
                    <text transform="translate(1015347.78 1253679.4)" id="l-rm-0003;01;0131A">0131A</text>
                    <text transform="translate(1015253.97 1253679.4)" id="l-rm-0003;01;0131B">0131B</text>
                    <text transform="translate(1015308.9 1251541.52)" id="l-rm-0003;01;0104">0104</text>
                    <text transform="translate(1014149 1252693.07)" id="l-rm-0003;01;ELEV1">ELEV1</text>
                    <text transform="translate(1015229 1253449.82)" id="l-rm-0003;01;ELEV2">ELEV2</text>
                    <text transform="translate(1015333.24 1253446.4)" id="l-rm-0003;01;0130" font-size="15.6">0130</text>
                    <text transform="translate(1014920.25 1253447.77)" id="l-rm-0003;01;0134">0134</text>
                    <text transform="translate(1015318.32 1252161.23)" id="l-rm-0003;01;ELEV3">ELEV3</text>
                    <text transform="translate(1015867 1253680.4)" id="l-rm-0003;01;0123">0123</text>
                    <text transform="translate(1016023.75 1253565.05)" id="l-rm-0003;01;0121C">0121C</text>
                    <text transform="translate(1014362.82 1252378.56)" id="l-rm-0003;01;0142">0142</text>
                    <text transform="translate(1015338 1253297.4)" id="l-rm-0003;01;0120A">0120A</text>
                    <text transform="translate(1015689.75 1252284.4)" id="l-rm-0003;01;0111C">0111C</text>
                    <text transform="translate(1014766.99 1253565.8)" id="l-rm-0003;01;0137C">0137C</text>
                    <text transform="translate(1014022 1253018.1)" id="l-rm-0003;01;0173">0173</text>
                    <text transform="translate(1013943 1253045.4)" id="l-rm-0003;01;0175">0175</text>
                    <text transform="translate(1015146 1252640.4)" id="l-rm-0003;01;0138B">0138B</text>
                    <text transform="translate(1014439.18 1252360.36)" id="l-rm-0003;01;0141">0141</text>
                    <text transform="translate(1014278.19 1252360.36)" id="l-rm-0003;01;0140">0140</text>
                    <text transform="translate(1013994 1252363.47)" id="l-rm-0003;01;0149D">0149D</text>
                    <text transform="translate(1015254.45 1252346.8)" id="l-rm-0003;01;STAIR2">STAIR2</text>
                    <text transform="translate(1013784 1252490.99)" id="l-rm-0003;01;0162">0162</text>
                    <text transform="translate(1015220.18 1251548.95)" id="l-rm-0003;01;0104A">0104A</text>
                    <text transform="translate(1013712.5 1251837.99)" id="l-rm-0003;01;0154A">0154A</text>
                    <text transform="translate(1013790.79 1251822.99)" id="l-rm-0003;01;0152A">0152A</text>
                    <text transform="translate(1014189 1252460.4)" id="l-rm-0003;01;0149B">0149B</text>
                    <text transform="translate(1013788 1252385.01)" id="l-rm-0003;01;0158B">0158B</text>
                    <text transform="translate(1015418.98 1252608.98)" id="l-rm-0003;01;0115">0115</text>
                    <text transform="translate(1013928 1253252.89)" id="l-rm-0003;01;0177">0177</text>
                    <text transform="translate(1015429 1253705.73)" id="l-rm-0003;01;0127A">0127A</text>
                    <text transform="translate(1014089 1252455.47)" id="l-rm-0003;01;0149C">0149C</text>
                    <text transform="translate(1015417.61 1252512.91)" id="l-rm-0003;01;0116">0116</text>
                    <text transform="translate(1014177 1252352.4)" id="l-rm-0003;01;0149A">0149A</text>
                    <text transform="translate(1015429 1253617.4)" id="l-rm-0003;01;0129">0129</text>
                    <text transform="translate(1013921 1252363.4)" id="l-rm-0003;01;0190A">0190A</text>
                </g>
            </g>
        </g>
    </g>
    <filter id="f1" x="0" y="0" width="200%" height="200%">
        <feOffset result="offOut" in="SourceGraphic" dx="5" dy="5"/>
        <feColorMatrix result="matrixOut" in="offOut" values="0.2 0 0 0 0 0 0.2 0 0 0 0 0 0.2 0 0 0 0 0 1 0"/>
        <feGaussianBlur result="blurOut" in="matrixOut" stdDeviation="3"/>
        <feBlend in="SourceGraphic" in2="blurOut"/>
    </filter>
    <g id="marker-001" display="on" aria-label="MTD Bus Stop" aria-describedby="Bus stop indicator">
        <pattern id="pattern-marker-001" patternUnits="userSpaceOnUse" width="100" height="100">
            <image xlink:href="https://images.ccf.fs.illinois.edu/marker-images/eqstd-bus_stop-doc_graphic.jpg" width="100" height="100" preserveAspectRatio="none"/>
        </pattern>
        <g transform="matrix(2 0 0 2 1013490.608 1251042.883)" filter="url(#f1)">
            <path d="M50.5 7.073 73.5 30l-3.081-2.245c10.256 6.634 15.88 18.029 16.185 30.068 0 19.939-16.164 36.104-36.104 36.104-19.94 0-36.104-16.165-36.104-36.104.027-12.142 6.173-23.305 16.185-30.068L27.5 30l23-22.927z" fill="#282d41"/>
            <circle r="50" cx="50" cy="50" fill="url(#pattern-marker-001)" transform="matrix(.6 0 0 .6 21 28)"/>
        </g>
    </g>
    <g id="marker-002" display="on" aria-label="MTD Bus Stop" aria-describedby="Bus stop indicator">
        <pattern id="pattern-marker-002" patternUnits="userSpaceOnUse" width="100" height="100">
            <image xlink:href="https://images.ccf.fs.illinois.edu/marker-images/eqstd-bus_stop-doc_graphic.jpg" width="100" height="100" preserveAspectRatio="none"/>
        </pattern>
        <g transform="matrix(2 0 0 2 1016201.257 1250972.446)" filter="url(#f1)">
            <path d="M50.5 7.073 73.5 30l-3.081-2.245c10.256 6.634 15.88 18.029 16.185 30.068 0 19.939-16.164 36.104-36.104 36.104-19.94 0-36.104-16.165-36.104-36.104.027-12.142 6.173-23.305 16.185-30.068L27.5 30l23-22.927z" fill="#282d41"/>
            <circle r="50" cx="50" cy="50" fill="url(#pattern-marker-002)" transform="matrix(.6 0 0 .6 21 28)"/>
        </g>
    </g>
    <g id="marker-003" display="on" aria-label="North Indicator" aria-describedby="Directional indicator for north">
        <pattern id="pattern-marker-003" patternUnits="userSpaceOnUse" width="100" height="100">
            <image xlink:href="https://images.ccf.fs.illinois.edu/marker-images/eqstd-direction-doc_graphic.jpg" width="100" height="100" preserveAspectRatio="none"/>
        </pattern>
        <g transform="matrix(2 0 0 2 1013235.93 1253233.157)" filter="url(#f1)">
            <path d="M50.5 7.073 73.5 30l-3.081-2.245c10.256 6.634 15.88 18.029 16.185 30.068 0 19.939-16.164 36.104-36.104 36.104-19.94 0-36.104-16.165-36.104-36.104.027-12.142 6.173-23.305 16.185-30.068L27.5 30l23-22.927z" fill="#282d41"/>
            <circle r="50" cx="50" cy="50" fill="url(#pattern-marker-003)" transform="matrix(.6 0 0 .6 21 28)"/>
        </g>
    </g>
    <g id="marker-004" display="on" aria-label="ADA Entrance" aria-describedby="ADA compliant accessible entrance/exit">
        <pattern id="pattern-marker-004" patternUnits="userSpaceOnUse" width="100" height="100">
            <image xlink:href="https://images.ccf.fs.illinois.edu/marker-images/eqstd-entry-automatic-doc_graphic.jpg" width="100" height="100" preserveAspectRatio="none"/>
        </pattern>
        <g transform="matrix(2 0 0 2 1014734.526 1251949.947)" filter="url(#f1)">
            <path d="M50.5 7.073 73.5 30l-3.081-2.245c10.256 6.634 15.88 18.029 16.185 30.068 0 19.939-16.164 36.104-36.104 36.104-19.94 0-36.104-16.165-36.104-36.104.027-12.142 6.173-23.305 16.185-30.068L27.5 30l23-22.927z" fill="#282d41"/>
            <circle r="50" cx="50" cy="50" fill="url(#pattern-marker-004)" transform="matrix(.6 0 0 .6 21 28)"/>
        </g>
    </g>
    <g id="marker-005" display="on" aria-label="Entrance Exit" aria-describedby="Entrance/Exit">
        <pattern id="pattern-marker-005" patternUnits="userSpaceOnUse" width="100" height="100">
            <image xlink:href="https://images.ccf.fs.illinois.edu/marker-images/eqstd-entry_exit-doc_graphic.jpg" width="100" height="100" preserveAspectRatio="none"/>
        </pattern>
        <g transform="matrix(2 0 0 2 1014868.693 1251623.155)" filter="url(#f1)">
            <path d="M50.5 7.073 73.5 30l-3.081-2.245c10.256 6.634 15.88 18.029 16.185 30.068 0 19.939-16.164 36.104-36.104 36.104-19.94 0-36.104-16.165-36.104-36.104.027-12.142 6.173-23.305 16.185-30.068L27.5 30l23-22.927z" fill="#282d41"/>
            <circle r="50" cx="50" cy="50" fill="url(#pattern-marker-005)" transform="matrix(.6 0 0 .6 21 28)"/>
        </g>
    </g>
    <g id="marker-006" display="on" aria-label="Entrance Exit" aria-describedby="Entrance/Exit">
        <pattern id="pattern-marker-006" patternUnits="userSpaceOnUse" width="100" height="100">
            <image xlink:href="https://images.ccf.fs.illinois.edu/marker-images/eqstd-entry_exit-doc_graphic.jpg" width="100" height="100" preserveAspectRatio="none"/>
        </pattern>
        <g transform="matrix(2 0 0 2 1015104.683 1251130.092)" filter="url(#f1)">
            <path d="M50.5 7.073 73.5 30l-3.081-2.245c10.256 6.634 15.88 18.029 16.185 30.068 0 19.939-16.164 36.104-36.104 36.104-19.94 0-36.104-16.165-36.104-36.104.027-12.142 6.173-23.305 16.185-30.068L27.5 30l23-22.927z" fill="#282d41"/>
            <circle r="50" cx="50" cy="50" fill="url(#pattern-marker-006)" transform="matrix(.6 0 0 .6 21 28)"/>
        </g>
    </g>
    <g id="marker-007" display="on" aria-label="Entrance Exit" aria-describedby="Entrance/Exit">
        <pattern id="pattern-marker-007" patternUnits="userSpaceOnUse" width="100" height="100">
            <image xlink:href="https://images.ccf.fs.illinois.edu/marker-images/eqstd-entry_exit-doc_graphic.jpg" width="100" height="100" preserveAspectRatio="none"/>
        </pattern>
        <g transform="matrix(2 0 0 2 1013959.234 1251444.904)" filter="url(#f1)">
            <path d="M50.5 7.073 73.5 30l-3.081-2.245c10.256 6.634 15.88 18.029 16.185 30.068 0 19.939-16.164 36.104-36.104 36.104-19.94 0-36.104-16.165-36.104-36.104.027-12.142 6.173-23.305 16.185-30.068L27.5 30l23-22.927z" fill="#282d41"/>
            <circle r="50" cx="50" cy="50" fill="url(#pattern-marker-007)" transform="matrix(.6 0 0 .6 21 28)"/>
        </g>
    </g>
    <g id="marker-008" display="on" aria-label="Entrance Exit" aria-describedby="Entrance/Exit">
        <pattern id="pattern-marker-008" patternUnits="userSpaceOnUse" width="100" height="100">
            <image xlink:href="https://images.ccf.fs.illinois.edu/marker-images/eqstd-entry_exit-doc_graphic.jpg" width="100" height="100" preserveAspectRatio="none"/>
        </pattern>
        <g transform="matrix(2 0 0 2 1014130.776 1252834.49)" filter="url(#f1)">
            <path d="M50.5 7.073 73.5 30l-3.081-2.245c10.256 6.634 15.88 18.029 16.185 30.068 0 19.939-16.164 36.104-36.104 36.104-19.94 0-36.104-16.165-36.104-36.104.027-12.142 6.173-23.305 16.185-30.068L27.5 30l23-22.927z" fill="#282d41"/>
            <circle r="50" cx="50" cy="50" fill="url(#pattern-marker-008)" transform="matrix(.6 0 0 .6 21 28)"/>
        </g>
    </g>
    <g id="marker-009" display="on" aria-label="Entrance Exit" aria-describedby="Entrance/Exit">
        <pattern id="pattern-marker-009" patternUnits="userSpaceOnUse" width="100" height="100">
            <image xlink:href="https://images.ccf.fs.illinois.edu/marker-images/eqstd-entry_exit-doc_graphic.jpg" width="100" height="100" preserveAspectRatio="none"/>
        </pattern>
        <g transform="matrix(2 0 0 2 1014010.505 1253277.48)" filter="url(#f1)">
            <path d="M50.5 7.073 73.5 30l-3.081-2.245c10.256 6.634 15.88 18.029 16.185 30.068 0 19.939-16.164 36.104-36.104 36.104-19.94 0-36.104-16.165-36.104-36.104.027-12.142 6.173-23.305 16.185-30.068L27.5 30l23-22.927z" fill="#282d41"/>
            <circle r="50" cx="50" cy="50" fill="url(#pattern-marker-009)" transform="matrix(.6 0 0 .6 21 28)"/>
        </g>
    </g>
    <g id="marker-010" display="on" aria-label="Entrance Exit" aria-describedby="Entrance/Exit">
        <pattern id="pattern-marker-010" patternUnits="userSpaceOnUse" width="100" height="100">
            <image xlink:href="https://images.ccf.fs.illinois.edu/marker-images/eqstd-entry_exit-doc_graphic.jpg" width="100" height="100" preserveAspectRatio="none"/>
        </pattern>
        <g transform="matrix(2 0 0 2 1015002.62 1253293.532)" filter="url(#f1)">
            <path d="M50.5 7.073 73.5 30l-3.081-2.245c10.256 6.634 15.88 18.029 16.185 30.068 0 19.939-16.164 36.104-36.104 36.104-19.94 0-36.104-16.165-36.104-36.104.027-12.142 6.173-23.305 16.185-30.068L27.5 30l23-22.927z" fill="#282d41"/>
            <circle r="50" cx="50" cy="50" fill="url(#pattern-marker-010)" transform="matrix(.6 0 0 .6 21 28)"/>
        </g>
    </g>
    <g id="marker-011" display="on" aria-label="Evacuation Assembly" aria-describedby="Evacuation assembly area">
        <pattern id="pattern-marker-011" patternUnits="userSpaceOnUse" width="100" height="100">
            <image xlink:href="https://images.ccf.fs.illinois.edu/marker-images/eqstd-evac_assembly-doc_graphic.jpg" width="100" height="100" preserveAspectRatio="none"/>
        </pattern>
        <g transform="matrix(2 0 0 2 1012812.107 1251482.52)" filter="url(#f1)">
            <path d="M50.5 7.073 73.5 30l-3.081-2.245c10.256 6.634 15.88 18.029 16.185 30.068 0 19.939-16.164 36.104-36.104 36.104-19.94 0-36.104-16.165-36.104-36.104.027-12.142 6.173-23.305 16.185-30.068L27.5 30l23-22.927z" fill="#282d41"/>
            <circle r="50" cx="50" cy="50" fill="url(#pattern-marker-011)" transform="matrix(.6 0 0 .6 21 28)"/>
        </g>
    </g>
    <g id="marker-012" display="on" aria-label="Evacuation Assembly" aria-describedby="Evacuation assembly area">
        <pattern id="pattern-marker-012" patternUnits="userSpaceOnUse" width="100" height="100">
            <image xlink:href="https://images.ccf.fs.illinois.edu/marker-images/eqstd-evac_assembly-doc_graphic.jpg" width="100" height="100" preserveAspectRatio="none"/>
        </pattern>
        <g transform="matrix(2 0 0 2 1012812.107 1252402.52)" filter="url(#f1)">
            <path d="M50.5 7.073 73.5 30l-3.081-2.245c10.256 6.634 15.88 18.029 16.185 30.068 0 19.939-16.164 36.104-36.104 36.104-19.94 0-36.104-16.165-36.104-36.104.027-12.142 6.173-23.305 16.185-30.068L27.5 30l23-22.927z" fill="#282d41"/>
            <circle r="50" cx="50" cy="50" fill="url(#pattern-marker-012)" transform="matrix(.6 0 0 .6 21 28)"/>
        </g>
    </g>
    <g id="marker-013" display="on" aria-label="Area of Rescue Assistance" aria-describedby="Area of rescue assistance">
        <pattern id="pattern-marker-013" patternUnits="userSpaceOnUse" width="100" height="100">
            <image xlink:href="https://images.ccf.fs.illinois.edu/marker-images/eqstd-doc_graphic-RESCUE_ASSIST-v1.jpg" width="100" height="100" preserveAspectRatio="none"/>
        </pattern>
        <g transform="matrix(2 0 0 2 1015403.204 1251151.415)" filter="url(#f1)">
            <path d="M50.5 7.073 73.5 30l-3.081-2.245c10.256 6.634 15.88 18.029 16.185 30.068 0 19.939-16.164 36.104-36.104 36.104-19.94 0-36.104-16.165-36.104-36.104.027-12.142 6.173-23.305 16.185-30.068L27.5 30l23-22.927z" fill="#282d41"/>
            <circle r="50" cx="50" cy="50" fill="url(#pattern-marker-013)" transform="matrix(.6 0 0 .6 21 28)"/>
        </g>
    </g>
    <g id="marker-014" display="on" aria-label="Area of Rescue Assistance" aria-describedby="Area of rescue assistance">
        <pattern id="pattern-marker-014" patternUnits="userSpaceOnUse" width="100" height="100">
            <image xlink:href="https://images.ccf.fs.illinois.edu/marker-images/eqstd-doc_graphic-RESCUE_ASSIST-v1.jpg" width="100" height="100" preserveAspectRatio="none"/>
        </pattern>
        <g transform="matrix(2 0 0 2 1013642.744 1251461.915)" filter="url(#f1)">
            <path d="M50.5 7.073 73.5 30l-3.081-2.245c10.256 6.634 15.88 18.029 16.185 30.068 0 19.939-16.164 36.104-36.104 36.104-19.94 0-36.104-16.165-36.104-36.104.027-12.142 6.173-23.305 16.185-30.068L27.5 30l23-22.927z" fill="#282d41"/>
            <circle r="50" cx="50" cy="50" fill="url(#pattern-marker-014)" transform="matrix(.6 0 0 .6 21 28)"/>
        </g>
    </g>
    <g id="marker-015" display="on" aria-label="Area of Rescue Assistance" aria-describedby="Area of rescue assistance">
        <pattern id="pattern-marker-015" patternUnits="userSpaceOnUse" width="100" height="100">
            <image xlink:href="https://images.ccf.fs.illinois.edu/marker-images/eqstd-doc_graphic-RESCUE_ASSIST-v1.jpg" width="100" height="100" preserveAspectRatio="none"/>
        </pattern>
        <g transform="matrix(2 0 0 2 1014176.536 1252587)" filter="url(#f1)">
            <path d="M50.5 7.073 73.5 30l-3.081-2.245c10.256 6.634 15.88 18.029 16.185 30.068 0 19.939-16.164 36.104-36.104 36.104-19.94 0-36.104-16.165-36.104-36.104.027-12.142 6.173-23.305 16.185-30.068L27.5 30l23-22.927z" fill="#282d41"/>
            <circle r="50" cx="50" cy="50" fill="url(#pattern-marker-015)" transform="matrix(.6 0 0 .6 21 28)"/>
        </g>
    </g>
    <g id="marker-016" display="on" aria-label="Area of Rescue Assistance" aria-describedby="Area of rescue assistance">
        <pattern id="pattern-marker-016" patternUnits="userSpaceOnUse" width="100" height="100">
            <image xlink:href="https://images.ccf.fs.illinois.edu/marker-images/eqstd-doc_graphic-RESCUE_ASSIST-v1.jpg" width="100" height="100" preserveAspectRatio="none"/>
        </pattern>
        <g transform="matrix(2 0 0 2 1015026.1 1253418.115)" filter="url(#f1)">
            <path d="M50.5 7.073 73.5 30l-3.081-2.245c10.256 6.634 15.88 18.029 16.185 30.068 0 19.939-16.164 36.104-36.104 36.104-19.94 0-36.104-16.165-36.104-36.104.027-12.142 6.173-23.305 16.185-30.068L27.5 30l23-22.927z" fill="#282d41"/>
            <circle r="50" cx="50" cy="50" fill="url(#pattern-marker-016)" transform="matrix(.6 0 0 .6 21 28)"/>
        </g>
    </g>
    <g id="marker-017" display="on" aria-label="All Gender ADA Restroom" aria-describedby="ADA compliant all gender restroom">
        <pattern id="pattern-marker-017" patternUnits="userSpaceOnUse" width="100" height="100">
            <image xlink:href="https://images.ccf.fs.illinois.edu/marker-images/eqstd-rr-allgender-ada-doc_graphic.jpg" width="100" height="100" preserveAspectRatio="none"/>
        </pattern>
        <g transform="matrix(2 0 0 2 1014177.849 1252360.114)" filter="url(#f1)">
            <path d="M50.5 7.073 73.5 30l-3.081-2.245c10.256 6.634 15.88 18.029 16.185 30.068 0 19.939-16.164 36.104-36.104 36.104-19.94 0-36.104-16.165-36.104-36.104.027-12.142 6.173-23.305 16.185-30.068L27.5 30l23-22.927z" fill="#282d41"/>
            <circle r="50" cx="50" cy="50" fill="url(#pattern-marker-017)" transform="matrix(.6 0 0 .6 21 28)"/>
        </g>
    </g>
    <g id="marker-018" display="on" aria-label="All Gender ADA Restroom" aria-describedby="ADA compliant all gender restroom">
        <pattern id="pattern-marker-018" patternUnits="userSpaceOnUse" width="100" height="100">
            <image xlink:href="https://images.ccf.fs.illinois.edu/marker-images/eqstd-rr-allgender-ada-doc_graphic.jpg" width="100" height="100" preserveAspectRatio="none"/>
        </pattern>
        <g transform="matrix(2 0 0 2 1014338.849 1252360.114)" filter="url(#f1)">
            <path d="M50.5 7.073 73.5 30l-3.081-2.245c10.256 6.634 15.88 18.029 16.185 30.068 0 19.939-16.164 36.104-36.104 36.104-19.94 0-36.104-16.165-36.104-36.104.027-12.142 6.173-23.305 16.185-30.068L27.5 30l23-22.927z" fill="#282d41"/>
            <circle r="50" cx="50" cy="50" fill="url(#pattern-marker-018)" transform="matrix(.6 0 0 .6 21 28)"/>
        </g>
    </g>
    <g id="marker-019" display="on" aria-label="Men's Restroom" aria-describedby="Men's restroom">
        <pattern id="pattern-marker-019" patternUnits="userSpaceOnUse" width="100" height="100">
            <image xlink:href="https://images.ccf.fs.illinois.edu/marker-images/eqstd-rr-mens-doc_graphic.jpg" width="100" height="100" preserveAspectRatio="none"/>
        </pattern>
        <g transform="matrix(2 0 0 2 1015456.746 1252659.114)" filter="url(#f1)">
            <path d="M50.5 7.073 73.5 30l-3.081-2.245c10.256 6.634 15.88 18.029 16.185 30.068 0 19.939-16.164 36.104-36.104 36.104-19.94 0-36.104-16.165-36.104-36.104.027-12.142 6.173-23.305 16.185-30.068L27.5 30l23-22.927z" fill="#282d41"/>
            <circle r="50" cx="50" cy="50" fill="url(#pattern-marker-019)" transform="matrix(.6 0 0 .6 21 28)"/>
        </g>
    </g>
    <g id="marker-020" display="on" aria-label="Women's Restroom" aria-describedby="Women's restroom">
        <pattern id="pattern-marker-020" patternUnits="userSpaceOnUse" width="100" height="100">
            <image xlink:href="https://images.ccf.fs.illinois.edu/marker-images/eqstd-rr-womens-doc_graphic.jpg" width="100" height="100" preserveAspectRatio="none"/>
        </pattern>
        <g transform="matrix(2 0 0 2 1015486.934 1252496.197)" filter="url(#f1)">
            <path d="M50.5 7.073 73.5 30l-3.081-2.245c10.256 6.634 15.88 18.029 16.185 30.068 0 19.939-16.164 36.104-36.104 36.104-19.94 0-36.104-16.165-36.104-36.104.027-12.142 6.173-23.305 16.185-30.068L27.5 30l23-22.927z" fill="#282d41"/>
            <circle r="50" cx="50" cy="50" fill="url(#pattern-marker-020)" transform="matrix(.6 0 0 .6 21 28)"/>
        </g>
    </g>
    <g id="marker-021" display="on" aria-label="Drinking Fountain" aria-describedby="Drinking Fountain">
        <pattern id="pattern-marker-021" patternUnits="userSpaceOnUse" width="100" height="100">
            <image xlink:href="https://images.ccf.fs.illinois.edu/marker-images/eqstd-water_fountain-doc_graphic.jpg" width="100" height="100" preserveAspectRatio="none"/>
        </pattern>
        <g transform="matrix(2 0 0 2 1014427.38 1252341.906)" filter="url(#f1)">
            <path d="M50.5 7.073 73.5 30l-3.081-2.245c10.256 6.634 15.88 18.029 16.185 30.068 0 19.939-16.164 36.104-36.104 36.104-19.94 0-36.104-16.165-36.104-36.104.027-12.142 6.173-23.305 16.185-30.068L27.5 30l23-22.927z" fill="#282d41"/>
            <circle r="50" cx="50" cy="50" fill="url(#pattern-marker-021)" transform="matrix(.6 0 0 .6 21 28)"/>
        </g>
    </g>
    <g id="marker-022" display="on" aria-label="Drinking Fountain" aria-describedby="Drinking Fountain">
        <pattern id="pattern-marker-022" patternUnits="userSpaceOnUse" width="100" height="100">
            <image xlink:href="https://images.ccf.fs.illinois.edu/marker-images/eqstd-water_fountain-doc_graphic.jpg" width="100" height="100" preserveAspectRatio="none"/>
        </pattern>
        <g transform="matrix(2 0 0 2 1015231.423 1252230.26)" filter="url(#f1)">
            <path d="M50.5 7.073 73.5 30l-3.081-2.245c10.256 6.634 15.88 18.029 16.185 30.068 0 19.939-16.164 36.104-36.104 36.104-19.94 0-36.104-16.165-36.104-36.104.027-12.142 6.173-23.305 16.185-30.068L27.5 30l23-22.927z" fill="#282d41"/>
            <circle r="50" cx="50" cy="50" fill="url(#pattern-marker-022)" transform="matrix(.6 0 0 .6 21 28)"/>
        </g>
    </g>
</svg>
